<?xml version="1.0" encoding="UTF-8" standalone="no"?>
<svg
   xmlns:dc="http://purl.org/dc/elements/1.1/"
   xmlns:cc="http://creativecommons.org/ns#"
   xmlns:rdf="http://www.w3.org/1999/02/22-rdf-syntax-ns#"
   xmlns:svg="http://www.w3.org/2000/svg"
   xmlns="http://www.w3.org/2000/svg"
   xmlns:sodipodi="http://sodipodi.sourceforge.net/DTD/sodipodi-0.dtd"
   xmlns:inkscape="http://www.inkscape.org/namespaces/inkscape"
   id="a8904fed-7223-4ff2-9071-b444910320a0"
   data-name="Layer 1"
   width="1137"
   height="1137"
   viewBox="0 0 1137 1137"
   version="1.1"
   sodipodi:docname="city.svg"
   inkscape:export-filename="/home/radek/Pulpit/www/licencjat/img/city_2.svg.png"
   inkscape:export-xdpi="96"
   inkscape:export-ydpi="96"
   inkscape:version="1.0.1 (0767f8302a, 2020-10-17)">
  <metadata
     id="metadata299">
    <rdf:RDF>
      <cc:Work
         rdf:about="">
        <dc:format>image/svg+xml</dc:format>
        <dc:type
           rdf:resource="http://purl.org/dc/dcmitype/StillImage" />
        <dc:title>best place</dc:title>
      </cc:Work>
    </rdf:RDF>
  </metadata>
  <defs
     id="defs297" />
  <sodipodi:namedview
     pagecolor="#ffffff"
     bordercolor="#666666"
     borderopacity="1"
     objecttolerance="10"
     gridtolerance="10"
     guidetolerance="10"
     inkscape:pageopacity="0"
     inkscape:pageshadow="2"
     inkscape:window-width="1860"
     inkscape:window-height="1016"
     id="namedview295"
     showgrid="false"
     inkscape:zoom="0.48197692"
     inkscape:cx="875.25993"
     inkscape:cy="354.63961"
     inkscape:window-x="60"
     inkscape:window-y="27"
     inkscape:window-maximized="1"
     inkscape:current-layer="a8904fed-7223-4ff2-9071-b444910320a0" />
  <title
     id="title2">best place</title>
  <g
     id="g446"
     transform="translate(0,309.47168)">
    <path
       d="m 175.76416,701.583 -1.95117,-0.43946 c 21.75586,-96.751 76.43017,-184.60937 153.95117,-247.3916 A 444.114,444.114 0 0 1 1039.919,699.96289 l -1.9492,0.44336 C 991.916,498.19727 814.69531,356.97168 607,356.97168 c -204.97363,0 -386.33447,144.92969 -431.23584,344.61132 z"
       transform="translate(-31.5,-190.97168)"
       fill="#3f3d56"
       id="path4" />
    <circle
       cx="899.63336"
       cy="219.90276"
       r="54.315159"
       fill="#ff6584"
       id="circle6" />
    <rect
       x="877"
       y="437.05664"
       width="2"
       height="79"
       fill="#3f3d56"
       id="rect8" />
    <path
       d="m 928.95773,638.096 c 0.12732,27.62433 -19.30786,50.10833 -19.30786,50.10833 0,0 -19.6416,-22.3039 -19.76892,-49.92823 -0.12732,-27.62433 19.30786,-50.10833 19.30786,-50.10833 0,0 19.6416,22.30386 19.76892,49.92823 z"
       transform="translate(-31.5,-190.97168)"
       fill="#38ef7d"
       id="path10" />
    <path
       d="m 928.95773,638.096 c 0.12732,27.62433 -19.30786,50.10833 -19.30786,50.10833 0,0 -19.6416,-22.3039 -19.76892,-49.92823 -0.12732,-27.62433 19.30786,-50.10833 19.30786,-50.10833 0,0 19.6416,22.30386 19.76892,49.92823 z"
       transform="translate(-31.5,-190.97168)"
       opacity="0.1"
       id="path12" />
    <circle
       cx="501.02167"
       cy="248.742"
       r="31.2479"
       fill="#38ef7d"
       opacity="0.4"
       id="circle14" />
    <circle
       cx="443.18973"
       cy="263.66638"
       r="21.92017"
       fill="#38ef7d"
       opacity="0.4"
       id="circle16" />
    <circle
       cx="208.18971"
       cy="326.66638"
       r="21.92017"
       fill="#38ef7d"
       opacity="0.4"
       id="circle18" />
    <circle
       cx="856.31219"
       cy="246.17134"
       r="31.2479"
       fill="#38ef7d"
       opacity="0.4"
       id="circle20" />
    <path
       d="m 88.13058,698.24412 c 1.694,6.26184 7.4961,10.14 7.4961,10.14 0,0 3.05572,-6.27434 1.36177,-12.53618 -1.69395,-6.26184 -7.49609,-10.14 -7.49609,-10.14 0,0 -3.05572,6.27433 -1.36178,12.53618 z"
       transform="translate(-31.5,-190.97168)"
       fill="#3f3d56"
       id="path22" />
    <path
       d="m 90.61972,696.89838 c 4.64821,4.52485 5.216,11.4806 5.216,11.4806 0,0 -6.9685,-0.38049 -11.61672,-4.90534 -4.64822,-4.52485 -5.216,-11.48059 -5.216,-11.48059 0,0 6.9685,0.38048 11.61672,4.90533 z"
       transform="translate(-31.5,-190.97168)"
       fill="#38ef7d"
       id="path24" />
    <path
       d="m 700.13058,698.24412 c 1.69395,6.26184 7.4961,10.14 7.4961,10.14 0,0 3.05572,-6.27434 1.36177,-12.53618 -1.69395,-6.26184 -7.49609,-10.14 -7.49609,-10.14 0,0 -3.05572,6.27433 -1.36178,12.53618 z"
       transform="translate(-31.5,-190.97168)"
       fill="#3f3d56"
       id="path26" />
    <path
       d="m 702.61972,696.89838 c 4.64821,4.52485 5.216,11.4806 5.216,11.4806 0,0 -6.9685,-0.38049 -11.61672,-4.90534 -4.64822,-4.52485 -5.216,-11.48059 -5.216,-11.48059 0,0 6.9685,0.38048 11.61672,4.90533 z"
       transform="translate(-31.5,-190.97168)"
       fill="#38ef7d"
       id="path28" />
    <polygon
       points="201.908,420.21 201.908,429.863 166.052,468.478 124.679,476.752 68.137,460.203 64,453.308 102.614,420.21 "
       fill="#3f3d56"
       id="polygon30" />
    <polygon
       points="206,424.86 201.908,420.21 168.81,453.308 163.293,458.824 156.398,486.406 168.81,516.745 232.247,516.745 232.247,454.687 219,439.633 219,418.056 206,418.056 "
       fill="#cccccc"
       id="polygon32" />
    <rect
       x="64"
       y="453.30771"
       width="104.80978"
       height="63.4375"
       fill="#f2f2f2"
       id="rect34" />
    <rect
       x="132.26427"
       y="473.30432"
       width="22.06522"
       height="19.30707"
       fill="#3f3d56"
       id="rect36" />
    <rect
       x="103.99321"
       y="472.61478"
       width="19.30707"
       height="44.130428"
       fill="#cccccc"
       id="rect38" />
    <polygon
       points="73.654,479.51 81.238,479.51 81.928,479.51 81.928,472.615 73.654,472.615 "
       fill="#3f3d56"
       id="polygon40" />
    <polygon
       points="81.928,491.922 81.928,485.026 81.238,485.026 73.654,485.026 73.654,491.922 "
       fill="#3f3d56"
       id="polygon42" />
    <rect
       x="87.44429"
       y="472.61478"
       width="8.2744598"
       height="6.89538"
       fill="#3f3d56"
       id="rect44" />
    <rect
       x="87.44429"
       y="485.02646"
       width="8.2744598"
       height="6.89538"
       fill="#3f3d56"
       id="rect46" />
    <polygon
       points="190.185,480.2 197.77,480.2 198.46,480.2 198.46,473.304 190.185,473.304 "
       fill="#3f3d56"
       id="polygon48" />
    <polygon
       points="198.46,492.611 198.46,485.716 197.77,485.716 190.185,485.716 190.185,492.611 "
       fill="#3f3d56"
       id="polygon50" />
    <rect
       x="203.97623"
       y="473.30432"
       width="8.2744598"
       height="6.89538"
       fill="#3f3d56"
       id="rect52" />
    <rect
       x="203.97623"
       y="485.716"
       width="8.2744598"
       height="6.89538"
       fill="#3f3d56"
       id="rect54" />
    <polygon
       points="600.908,420.21 600.908,429.863 565.052,468.478 523.679,476.752 467.137,460.203 463,453.308 501.614,420.21 "
       fill="#3f3d56"
       id="polygon56" />
    <polygon
       points="605,424.86 600.908,420.21 567.81,453.308 562.293,458.824 555.398,486.406 567.81,516.745 631.247,516.745 631.247,454.687 618,439.633 618,418.056 605,418.056 "
       fill="#cccccc"
       id="polygon58" />
    <rect
       x="463"
       y="453.30771"
       width="104.80978"
       height="63.4375"
       fill="#f2f2f2"
       id="rect60" />
    <rect
       x="531.26428"
       y="473.30432"
       width="22.06522"
       height="19.30707"
       fill="#3f3d56"
       id="rect62" />
    <rect
       x="502.99323"
       y="472.61478"
       width="19.30707"
       height="44.130428"
       fill="#cccccc"
       id="rect64" />
    <polygon
       points="472.654,479.51 480.238,479.51 480.928,479.51 480.928,472.615 472.654,472.615 "
       fill="#3f3d56"
       id="polygon66" />
    <polygon
       points="480.928,491.922 480.928,485.026 480.238,485.026 472.654,485.026 472.654,491.922 "
       fill="#3f3d56"
       id="polygon68" />
    <rect
       x="486.44427"
       y="472.61478"
       width="8.2744598"
       height="6.89538"
       fill="#3f3d56"
       id="rect70" />
    <rect
       x="486.44427"
       y="485.02646"
       width="8.2744598"
       height="6.89538"
       fill="#3f3d56"
       id="rect72" />
    <polygon
       points="589.185,480.2 596.77,480.2 597.46,480.2 597.46,473.304 589.185,473.304 "
       fill="#3f3d56"
       id="polygon74" />
    <polygon
       points="597.46,492.611 597.46,485.716 596.77,485.716 589.185,485.716 589.185,492.611 "
       fill="#3f3d56"
       id="polygon76" />
    <rect
       x="602.9762"
       y="473.30432"
       width="8.2744598"
       height="6.89538"
       fill="#3f3d56"
       id="rect78" />
    <rect
       x="602.9762"
       y="485.716"
       width="8.2744598"
       height="6.89538"
       fill="#3f3d56"
       id="rect80" />
    <polygon
       points="410.148,304.367 410.148,334.707 346.711,377.459 280.515,344.361 273.62,338.844 312.234,304.367 "
       fill="#3f3d56"
       id="polygon82" />
    <polygon
       points="415,309.624 410.148,304.367 378.429,338.844 366.018,347.119 346.773,487.722 375.796,516.745 443.246,516.745 443.246,340.223 428,323.707 428,305.056 415,305.056 "
       fill="#cccccc"
       id="polygon84" />
    <rect
       x="273.61957"
       y="338.84439"
       width="104.80978"
       height="177.90082"
       fill="#f2f2f2"
       id="rect86" />
    <rect
       x="314.30231"
       y="473.30432"
       width="19.30707"
       height="43.440899"
       fill="#cccccc"
       id="rect88" />
    <polygon
       points="285.342,485.716 292.927,485.716 293.616,485.716 293.616,478.821 285.342,478.821 "
       fill="#3f3d56"
       id="polygon90" />
    <polygon
       points="293.616,498.128 293.616,491.232 292.927,491.232 285.342,491.232 285.342,498.128 "
       fill="#3f3d56"
       id="polygon92" />
    <rect
       x="299.13248"
       y="478.82062"
       width="8.2744598"
       height="6.89538"
       fill="#3f3d56"
       id="rect94" />
    <rect
       x="299.13248"
       y="491.2323"
       width="8.2744598"
       height="6.89538"
       fill="#3f3d56"
       id="rect96" />
    <polygon
       points="341.884,485.716 349.469,485.716 350.158,485.716 350.158,478.821 341.884,478.821 "
       fill="#3f3d56"
       id="polygon98" />
    <polygon
       points="350.158,498.128 350.158,491.232 349.469,491.232 341.884,491.232 341.884,498.128 "
       fill="#3f3d56"
       id="polygon100" />
    <rect
       x="355.67459"
       y="478.82062"
       width="8.2744598"
       height="6.89538"
       fill="#3f3d56"
       id="rect102" />
    <rect
       x="355.67459"
       y="491.2323"
       width="8.2744598"
       height="6.89538"
       fill="#3f3d56"
       id="rect104" />
    <polygon
       points="399.805,347.808 407.39,347.808 408.079,347.808 408.079,340.913 399.805,340.913 "
       fill="#3f3d56"
       id="polygon106" />
    <polygon
       points="408.079,360.22 408.079,353.325 407.39,353.325 399.805,353.325 399.805,360.22 "
       fill="#3f3d56"
       id="polygon108" />
    <rect
       x="413.59579"
       y="340.91302"
       width="8.2744598"
       height="6.89538"
       fill="#3f3d56"
       id="rect110" />
    <rect
       x="413.59579"
       y="353.32468"
       width="8.2744598"
       height="6.89538"
       fill="#3f3d56"
       id="rect112" />
    <polygon
       points="399.805,386.423 407.39,386.423 408.079,386.423 408.079,379.527 399.805,379.527 "
       fill="#3f3d56"
       id="polygon114" />
    <polygon
       points="408.079,398.834 408.079,391.939 407.39,391.939 399.805,391.939 399.805,398.834 "
       fill="#3f3d56"
       id="polygon116" />
    <rect
       x="413.59579"
       y="379.52713"
       width="8.2744598"
       height="6.89538"
       fill="#3f3d56"
       id="rect118" />
    <rect
       x="413.59579"
       y="391.93881"
       width="8.2744598"
       height="6.89538"
       fill="#3f3d56"
       id="rect120" />
    <polygon
       points="399.805,425.037 407.39,425.037 408.079,425.037 408.079,418.141 399.805,418.141 "
       fill="#3f3d56"
       id="polygon122" />
    <polygon
       points="408.079,437.448 408.079,430.553 407.39,430.553 399.805,430.553 399.805,437.448 "
       fill="#3f3d56"
       id="polygon124" />
    <rect
       x="413.59579"
       y="418.14127"
       width="8.2744598"
       height="6.89538"
       fill="#3f3d56"
       id="rect126" />
    <rect
       x="413.59579"
       y="430.55295"
       width="8.2744598"
       height="6.89538"
       fill="#3f3d56"
       id="rect128" />
    <polygon
       points="399.805,463.651 407.39,463.651 408.079,463.651 408.079,456.755 399.805,456.755 "
       fill="#3f3d56"
       id="polygon130" />
    <polygon
       points="408.079,476.062 408.079,469.167 407.39,469.167 399.805,469.167 399.805,476.062 "
       fill="#3f3d56"
       id="polygon132" />
    <rect
       x="413.59579"
       y="456.7554"
       width="8.2744598"
       height="6.89538"
       fill="#3f3d56"
       id="rect134" />
    <rect
       x="413.59579"
       y="469.16708"
       width="8.2744598"
       height="6.89538"
       fill="#3f3d56"
       id="rect136" />
    <rect
       x="285.34171"
       y="347.80838"
       width="79.986412"
       height="16.54891"
       fill="#3f3d56"
       id="rect138" />
    <rect
       x="285.34171"
       y="380.90622"
       width="79.986412"
       height="16.54891"
       fill="#3f3d56"
       id="rect140" />
    <rect
       x="285.34171"
       y="414.00403"
       width="79.986412"
       height="16.54891"
       fill="#3f3d56"
       id="rect142" />
    <rect
       x="285.34171"
       y="447.10187"
       width="79.986412"
       height="16.54891"
       fill="#3f3d56"
       id="rect144" />
    <polygon
       points="813.148,304.367 813.148,334.707 749.711,377.459 683.515,344.361 676.62,338.844 715.234,304.367 "
       fill="#3f3d56"
       id="polygon146" />
    <polygon
       points="818,309.624 813.148,304.367 781.429,338.844 769.018,347.119 749.773,487.722 778.796,516.745 846.246,516.745 846.246,340.223 831,323.707 831,305.056 818,305.056 "
       fill="#cccccc"
       id="polygon148" />
    <rect
       x="676.61957"
       y="338.84439"
       width="104.80978"
       height="177.90082"
       fill="#f2f2f2"
       id="rect150" />
    <rect
       x="717.30231"
       y="473.30432"
       width="19.30707"
       height="43.440899"
       fill="#cccccc"
       id="rect152" />
    <polygon
       points="688.342,485.716 695.927,485.716 696.616,485.716 696.616,478.821 688.342,478.821 "
       fill="#3f3d56"
       id="polygon154" />
    <polygon
       points="696.616,498.128 696.616,491.232 695.927,491.232 688.342,491.232 688.342,498.128 "
       fill="#3f3d56"
       id="polygon156" />
    <rect
       x="702.13245"
       y="478.82062"
       width="8.2744598"
       height="6.89538"
       fill="#3f3d56"
       id="rect158" />
    <rect
       x="702.13245"
       y="491.2323"
       width="8.2744598"
       height="6.89538"
       fill="#3f3d56"
       id="rect160" />
    <polygon
       points="744.884,485.716 752.469,485.716 753.158,485.716 753.158,478.821 744.884,478.821 "
       fill="#3f3d56"
       id="polygon162" />
    <polygon
       points="753.158,498.128 753.158,491.232 752.469,491.232 744.884,491.232 744.884,498.128 "
       fill="#3f3d56"
       id="polygon164" />
    <rect
       x="758.67456"
       y="478.82062"
       width="8.2744598"
       height="6.89538"
       fill="#3f3d56"
       id="rect166" />
    <rect
       x="758.67456"
       y="491.2323"
       width="8.2744598"
       height="6.89538"
       fill="#3f3d56"
       id="rect168" />
    <polygon
       points="802.805,347.808 810.39,347.808 811.079,347.808 811.079,340.913 802.805,340.913 "
       fill="#3f3d56"
       id="polygon170" />
    <polygon
       points="811.079,360.22 811.079,353.325 810.39,353.325 802.805,353.325 802.805,360.22 "
       fill="#3f3d56"
       id="polygon172" />
    <rect
       x="816.59576"
       y="340.91302"
       width="8.2744598"
       height="6.89538"
       fill="#3f3d56"
       id="rect174" />
    <rect
       x="816.59576"
       y="353.32468"
       width="8.2744598"
       height="6.89538"
       fill="#3f3d56"
       id="rect176" />
    <polygon
       points="802.805,386.423 810.39,386.423 811.079,386.423 811.079,379.527 802.805,379.527 "
       fill="#3f3d56"
       id="polygon178" />
    <polygon
       points="811.079,398.834 811.079,391.939 810.39,391.939 802.805,391.939 802.805,398.834 "
       fill="#3f3d56"
       id="polygon180" />
    <rect
       x="816.59576"
       y="379.52713"
       width="8.2744598"
       height="6.89538"
       fill="#3f3d56"
       id="rect182" />
    <rect
       x="816.59576"
       y="391.93881"
       width="8.2744598"
       height="6.89538"
       fill="#3f3d56"
       id="rect184" />
    <polygon
       points="802.805,425.037 810.39,425.037 811.079,425.037 811.079,418.141 802.805,418.141 "
       fill="#3f3d56"
       id="polygon186" />
    <polygon
       points="811.079,437.448 811.079,430.553 810.39,430.553 802.805,430.553 802.805,437.448 "
       fill="#3f3d56"
       id="polygon188" />
    <rect
       x="816.59576"
       y="418.14127"
       width="8.2744598"
       height="6.89538"
       fill="#3f3d56"
       id="rect190" />
    <rect
       x="816.59576"
       y="430.55295"
       width="8.2744598"
       height="6.89538"
       fill="#3f3d56"
       id="rect192" />
    <polygon
       points="802.805,463.651 810.39,463.651 811.079,463.651 811.079,456.755 802.805,456.755 "
       fill="#3f3d56"
       id="polygon194" />
    <polygon
       points="811.079,476.062 811.079,469.167 810.39,469.167 802.805,469.167 802.805,476.062 "
       fill="#3f3d56"
       id="polygon196" />
    <rect
       x="816.59576"
       y="456.7554"
       width="8.2744598"
       height="6.89538"
       fill="#3f3d56"
       id="rect198" />
    <rect
       x="816.59576"
       y="469.16708"
       width="8.2744598"
       height="6.89538"
       fill="#3f3d56"
       id="rect200" />
    <rect
       x="688.34174"
       y="347.80838"
       width="79.986412"
       height="16.54891"
       fill="#3f3d56"
       id="rect202" />
    <rect
       x="688.34174"
       y="380.90622"
       width="79.986412"
       height="16.54891"
       fill="#3f3d56"
       id="rect204" />
    <rect
       x="688.34174"
       y="414.00403"
       width="79.986412"
       height="16.54891"
       fill="#3f3d56"
       id="rect206" />
    <rect
       x="688.34174"
       y="447.10187"
       width="79.986412"
       height="16.54891"
       fill="#3f3d56"
       id="rect208" />
    <polygon
       points="1034.148,304.367 1034.148,334.707 970.711,377.459 904.515,344.361 897.62,338.844 936.234,304.367 "
       fill="#3f3d56"
       id="polygon210" />
    <polygon
       points="1039,309.624 1034.148,304.367 1002.429,338.844 990.018,347.119 970.773,487.722 999.796,516.745 1067.246,516.745 1067.246,340.223 1052,323.707 1052,305.056 1039,305.056 "
       fill="#cccccc"
       id="polygon212" />
    <rect
       x="897.61957"
       y="338.84439"
       width="104.80978"
       height="177.90082"
       fill="#f2f2f2"
       id="rect214" />
    <rect
       x="938.30231"
       y="473.30432"
       width="19.30707"
       height="43.440899"
       fill="#cccccc"
       id="rect216" />
    <polygon
       points="909.342,485.716 916.927,485.716 917.616,485.716 917.616,478.821 909.342,478.821 "
       fill="#3f3d56"
       id="polygon218" />
    <polygon
       points="917.616,498.128 917.616,491.232 916.927,491.232 909.342,491.232 909.342,498.128 "
       fill="#3f3d56"
       id="polygon220" />
    <rect
       x="923.13245"
       y="478.82062"
       width="8.2744598"
       height="6.89538"
       fill="#3f3d56"
       id="rect222" />
    <rect
       x="923.13245"
       y="491.2323"
       width="8.2744598"
       height="6.89538"
       fill="#3f3d56"
       id="rect224" />
    <polygon
       points="965.884,485.716 973.469,485.716 974.158,485.716 974.158,478.821 965.884,478.821 "
       fill="#3f3d56"
       id="polygon226" />
    <polygon
       points="974.158,498.128 974.158,491.232 973.469,491.232 965.884,491.232 965.884,498.128 "
       fill="#3f3d56"
       id="polygon228" />
    <rect
       x="979.67456"
       y="478.82062"
       width="8.2744598"
       height="6.89538"
       fill="#3f3d56"
       id="rect230" />
    <rect
       x="979.67456"
       y="491.2323"
       width="8.2744598"
       height="6.89538"
       fill="#3f3d56"
       id="rect232" />
    <polygon
       points="1023.805,347.808 1031.39,347.808 1032.079,347.808 1032.079,340.913 1023.805,340.913 "
       fill="#3f3d56"
       id="polygon234" />
    <polygon
       points="1032.079,360.22 1032.079,353.325 1031.39,353.325 1023.805,353.325 1023.805,360.22 "
       fill="#3f3d56"
       id="polygon236" />
    <rect
       x="1037.5958"
       y="340.91302"
       width="8.2744598"
       height="6.89538"
       fill="#3f3d56"
       id="rect238" />
    <rect
       x="1037.5958"
       y="353.32468"
       width="8.2744598"
       height="6.89538"
       fill="#3f3d56"
       id="rect240" />
    <polygon
       points="1023.805,386.423 1031.39,386.423 1032.079,386.423 1032.079,379.527 1023.805,379.527 "
       fill="#3f3d56"
       id="polygon242" />
    <polygon
       points="1032.079,398.834 1032.079,391.939 1031.39,391.939 1023.805,391.939 1023.805,398.834 "
       fill="#3f3d56"
       id="polygon244" />
    <rect
       x="1037.5958"
       y="379.52713"
       width="8.2744598"
       height="6.89538"
       fill="#3f3d56"
       id="rect246" />
    <rect
       x="1037.5958"
       y="391.93881"
       width="8.2744598"
       height="6.89538"
       fill="#3f3d56"
       id="rect248" />
    <polygon
       points="1023.805,425.037 1031.39,425.037 1032.079,425.037 1032.079,418.141 1023.805,418.141 "
       fill="#3f3d56"
       id="polygon250" />
    <polygon
       points="1032.079,437.448 1032.079,430.553 1031.39,430.553 1023.805,430.553 1023.805,437.448 "
       fill="#3f3d56"
       id="polygon252" />
    <rect
       x="1037.5958"
       y="418.14127"
       width="8.2744598"
       height="6.89538"
       fill="#3f3d56"
       id="rect254" />
    <rect
       x="1037.5958"
       y="430.55295"
       width="8.2744598"
       height="6.89538"
       fill="#3f3d56"
       id="rect256" />
    <polygon
       points="1023.805,463.651 1031.39,463.651 1032.079,463.651 1032.079,456.755 1023.805,456.755 "
       fill="#3f3d56"
       id="polygon258" />
    <polygon
       points="1032.079,476.062 1032.079,469.167 1031.39,469.167 1023.805,469.167 1023.805,476.062 "
       fill="#3f3d56"
       id="polygon260" />
    <rect
       x="1037.5958"
       y="456.7554"
       width="8.2744598"
       height="6.89538"
       fill="#3f3d56"
       id="rect262" />
    <rect
       x="1037.5958"
       y="469.16708"
       width="8.2744598"
       height="6.89538"
       fill="#3f3d56"
       id="rect264" />
    <rect
       x="909.34174"
       y="347.80838"
       width="79.986412"
       height="16.54891"
       fill="#3f3d56"
       id="rect266" />
    <rect
       x="909.34174"
       y="380.90622"
       width="79.986412"
       height="16.54891"
       fill="#3f3d56"
       id="rect268" />
    <rect
       x="909.34174"
       y="414.00403"
       width="79.986412"
       height="16.54891"
       fill="#3f3d56"
       id="rect270" />
    <rect
       x="909.34174"
       y="447.10187"
       width="79.986412"
       height="16.54891"
       fill="#3f3d56"
       id="rect272" />
    <rect
       y="516.05664"
       width="1137"
       height="2"
       fill="#3f3d56"
       id="rect274"
       x="0" />
    <rect
       x="252"
       y="437.05664"
       width="2"
       height="79"
       fill="#3f3d56"
       id="rect276" />
    <path
       d="m 303.95773,638.096 c 0.12732,27.62433 -19.30786,50.10833 -19.30786,50.10833 0,0 -19.6416,-22.3039 -19.76892,-49.92823 -0.12732,-27.62433 19.30786,-50.10833 19.30786,-50.10833 0,0 19.6416,22.30386 19.76892,49.92823 z"
       transform="translate(-31.5,-190.97168)"
       fill="#38ef7d"
       id="path278" />
    <rect
       x="452"
       y="437.05664"
       width="2"
       height="79"
       fill="#3f3d56"
       id="rect280" />
    <path
       d="m 503.95773,638.096 c 0.12732,27.62433 -19.30786,50.10833 -19.30786,50.10833 0,0 -19.6416,-22.3039 -19.76892,-49.92823 -0.12732,-27.62433 19.30786,-50.10833 19.30786,-50.10833 0,0 19.6416,22.30386 19.76892,49.92823 z"
       transform="translate(-31.5,-190.97168)"
       fill="#38ef7d"
       id="path282" />
    <rect
       x="851"
       y="437.05664"
       width="2"
       height="79"
       fill="#3f3d56"
       id="rect284" />
    <path
       d="m 902.95773,638.096 c 0.12732,27.62433 -19.30786,50.10833 -19.30786,50.10833 0,0 -19.6416,-22.3039 -19.76892,-49.92823 -0.12732,-27.62433 19.30786,-50.10833 19.30786,-50.10833 0,0 19.6416,22.30386 19.76892,49.92823 z"
       transform="translate(-31.5,-190.97168)"
       fill="#38ef7d"
       id="path286" />
    <ellipse
       cx="587.5"
       cy="163.5"
       rx="38"
       ry="8.5500002"
       fill="#38ef7d"
       id="ellipse288" />
    <path
       d="m 662,234.97168 c 0,24.30053 -44,93 -44,93 0,0 -44,-68.69947 -44,-93 a 44,44 0 0 1 88,0 z"
       transform="translate(-31.5,-190.97168)"
       fill="#38ef7d"
       id="path290" />
    <circle
       cx="586.5"
       cy="44"
       fill="#f2f2f2"
       id="circle292"
       r="25" />
  </g>
</svg>
