<?xml version="1.0" encoding="UTF-8" standalone="no"?>
<svg
   xmlns:dc="http://purl.org/dc/elements/1.1/"
   xmlns:cc="http://creativecommons.org/ns#"
   xmlns:rdf="http://www.w3.org/1999/02/22-rdf-syntax-ns#"
   xmlns:svg="http://www.w3.org/2000/svg"
   xmlns="http://www.w3.org/2000/svg"
   xmlns:sodipodi="http://sodipodi.sourceforge.net/DTD/sodipodi-0.dtd"
   xmlns:inkscape="http://www.inkscape.org/namespaces/inkscape"
   id="a9370ae1-210a-4918-a96d-edf406e909af"
   data-name="Layer 1"
   width="1086"
   height="563.10358"
   viewBox="0 0 1086 563.10358"
   version="1.1"
   sodipodi:docname="nature.svg"
   inkscape:version="1.0.1 (0767f8302a, 2020-10-17)">
  <metadata
     id="metadata474">
    <rdf:RDF>
      <cc:Work
         rdf:about="">
        <dc:format>image/svg+xml</dc:format>
        <dc:type
           rdf:resource="http://purl.org/dc/dcmitype/StillImage" />
        <dc:title>festivities</dc:title>
      </cc:Work>
    </rdf:RDF>
  </metadata>
  <sodipodi:namedview
     pagecolor="#ffffff"
     bordercolor="#666666"
     borderopacity="1"
     objecttolerance="10"
     gridtolerance="10"
     guidetolerance="10"
     inkscape:pageopacity="0"
     inkscape:pageshadow="2"
     inkscape:window-width="1860"
     inkscape:window-height="1016"
     id="namedview472"
     showgrid="false"
     inkscape:zoom="0.2705301"
     inkscape:cx="115.20514"
     inkscape:cy="340.01483"
     inkscape:window-x="60"
     inkscape:window-y="27"
     inkscape:window-maximized="1"
     inkscape:current-layer="g705"
     inkscape:document-rotation="0"
     fit-margin-top="0"
     fit-margin-left="0"
     fit-margin-right="0"
     fit-margin-bottom="0" />
  <defs
     id="defs9">
    <linearGradient
       id="b77fcadf-efbd-44d1-9146-365d58ec581c"
       x1="585.79999"
       y1="811"
       x2="585.79999"
       y2="677.20001"
       gradientUnits="userSpaceOnUse">
      <stop
         offset="0"
         stop-color="gray"
         stop-opacity="0.25"
         id="stop2" />
      <stop
         offset="0.54"
         stop-color="gray"
         stop-opacity="0.12"
         id="stop4" />
      <stop
         offset="1"
         stop-color="gray"
         stop-opacity="0.1"
         id="stop6" />
    </linearGradient>
  </defs>
  <title
     id="title11">festivities</title>
  <g
     id="g705"
     transform="translate(0,-248.26645)"
     inkscape:export-xdpi="96"
     inkscape:export-ydpi="96">
    <g
       id="g1050">
      <g
         opacity="0.1"
         id="g101">
        <ellipse
           cx="780.78998"
           cy="757.46997"
           rx="17.99"
           ry="23.549999"
           fill="#3f3d56"
           id="ellipse89" />
        <path
           d="m 852,701 a 28.31,28.31 0 0 0 3.76,-14.39 c 0,-13 -8.06,-23.56 -18,-23.56 -9.94,0 -18,10.55 -18,23.56 a 28.41,28.41 0 0 0 3.79,14.39 29.44,29.44 0 0 0 0,28.79 29.42,29.42 0 0 0 0,28.78 28.47,28.47 0 0 0 -3.76,14.4 c 0,13 8.06,23.55 18,23.55 9.94,0 18,-10.54 18,-23.55 A 28.37,28.37 0 0 0 852,758.6 29.42,29.42 0 0 0 852,729.82 29.44,29.44 0 0 0 852,701 Z"
           transform="translate(-57,-44.32)"
           fill="#3f3d56"
           id="path91" />
        <ellipse
           cx="780.78998"
           cy="613.53003"
           rx="17.99"
           ry="23.549999"
           fill="#3f3d56"
           id="ellipse93" />
        <ellipse
           cx="780.78998"
           cy="584.75"
           rx="17.99"
           ry="23.549999"
           fill="#3f3d56"
           id="ellipse95" />
        <path
           d="m 905.14,432.07 a 85.17,85.17 0 0 0 6.7,-9.87 l -47.28,-7.76 51.13,0.38 a 86.35,86.35 0 0 0 1.65,-68.29 l -68.6,35.59 63.26,-46.51 a 86.19,86.19 0 1 0 -142.34,96.46 86.51,86.51 0 0 0 -9.83,15.71 l 61.37,31.88 -65.43,-22 a 86.22,86.22 0 0 0 13.89,80.93 86.18,86.18 0 1 0 135.48,0 86.19,86.19 0 0 0 0,-106.56 z"
           transform="translate(-57,-44.32)"
           fill="#38ef7d"
           id="path97" />
        <path
           d="m 751.22,485.35 a 85.81,85.81 0 0 0 18.44,53.28 86.18,86.18 0 1 0 135.48,0 C 916.69,524 751.22,475.68 751.22,485.35 Z"
           transform="translate(-57,-44.32)"
           opacity="0.1"
           id="path99" />
      </g>
      <g
         opacity="0.1"
         id="g115">
        <ellipse
           cx="164.21001"
           cy="757.46997"
           rx="17.99"
           ry="23.549999"
           fill="#3f3d56"
           id="ellipse103" />
        <path
           d="m 235.45,701 a 28.41,28.41 0 0 0 3.76,-14.39 c 0,-13 -8.06,-23.56 -18,-23.56 -9.94,0 -18,10.55 -18,23.56 A 28.31,28.31 0 0 0 207,701 a 29.44,29.44 0 0 0 0,28.79 29.42,29.42 0 0 0 0,28.78 28.37,28.37 0 0 0 -3.76,14.4 c 0,13 8.06,23.55 18,23.55 9.94,0 18,-10.54 18,-23.55 a 28.47,28.47 0 0 0 -3.76,-14.4 29.42,29.42 0 0 0 0,-28.78 29.44,29.44 0 0 0 0,-28.79 z"
           transform="translate(-57,-44.32)"
           fill="#3f3d56"
           id="path105" />
        <ellipse
           cx="164.21001"
           cy="613.53003"
           rx="17.99"
           ry="23.549999"
           fill="#3f3d56"
           id="ellipse107" />
        <ellipse
           cx="164.21001"
           cy="584.75"
           rx="17.99"
           ry="23.549999"
           fill="#3f3d56"
           id="ellipse109" />
        <path
           d="m 153.86,432.07 a 85.17,85.17 0 0 1 -6.7,-9.87 l 47.28,-7.76 -51.13,0.38 a 86.35,86.35 0 0 1 -1.65,-68.29 l 68.6,35.59 L 147,335.61 a 86.19,86.19 0 1 1 142.34,96.46 86.51,86.51 0 0 1 9.83,15.71 l -61.37,31.88 65.43,-22 a 86.22,86.22 0 0 1 -13.89,80.93 86.18,86.18 0 1 1 -135.48,0 86.19,86.19 0 0 1 0,-106.56 z"
           transform="translate(-57,-44.32)"
           fill="#38ef7d"
           id="path111" />
        <path
           d="m 307.78,485.35 a 85.81,85.81 0 0 1 -18.44,53.28 86.18,86.18 0 1 1 -135.48,0 C 142.31,524 307.78,475.68 307.78,485.35 Z"
           transform="translate(-57,-44.32)"
           opacity="0.1"
           id="path113" />
      </g>
      <g
         opacity="0.1"
         id="g129">
        <ellipse
           cx="453.31"
           cy="757.46997"
           rx="17.99"
           ry="23.549999"
           fill="#3f3d56"
           id="ellipse117" />
        <path
           d="m 524.55,701 a 28.4,28.4 0 0 0 3.75,-14.39 c 0,-13 -8,-23.56 -18,-23.56 -10,0 -18,10.55 -18,23.56 a 28.31,28.31 0 0 0 3.78,14.39 29.44,29.44 0 0 0 0,28.79 29.42,29.42 0 0 0 0,28.78 28.37,28.37 0 0 0 -3.76,14.4 c 0,13 8.06,23.55 18,23.55 9.94,0 18,-10.54 18,-23.55 a 28.47,28.47 0 0 0 -3.75,-14.4 29.48,29.48 0 0 0 0,-28.78 29.5,29.5 0 0 0 0,-28.79 z"
           transform="translate(-57,-44.32)"
           fill="#3f3d56"
           id="path119" />
        <ellipse
           cx="453.31"
           cy="613.53003"
           rx="17.99"
           ry="23.549999"
           fill="#3f3d56"
           id="ellipse121" />
        <ellipse
           cx="453.31"
           cy="584.75"
           rx="17.99"
           ry="23.549999"
           fill="#3f3d56"
           id="ellipse123" />
        <path
           d="m 443,432.07 a 85.17,85.17 0 0 1 -6.7,-9.87 l 47.27,-7.76 -51.12,0.38 a 86.35,86.35 0 0 1 -1.65,-68.29 l 68.6,35.59 -63.27,-46.51 a 86.19,86.19 0 1 1 142.35,96.46 85.91,85.91 0 0 1 9.82,15.71 l -61.4,31.88 65.43,-22 a 86.22,86.22 0 0 1 -13.89,80.93 86.18,86.18 0 1 1 -135.48,0 86.19,86.19 0 0 1 0,-106.56 z"
           transform="translate(-57,-44.32)"
           fill="#38ef7d"
           id="path125" />
        <path
           d="m 596.88,485.35 a 85.81,85.81 0 0 1 -18.44,53.28 86.18,86.18 0 1 1 -135.48,0 C 431.41,524 596.88,475.68 596.88,485.35 Z"
           transform="translate(-57,-44.32)"
           opacity="0.1"
           id="path127" />
      </g>
      <path
         d="m 906.16,709.81 a 24.69,24.69 0 0 0 3.27,-12.54 c 0,-11.33 -7,-20.51 -15.67,-20.51 -8.67,0 -15.67,9.18 -15.67,20.51 a 24.69,24.69 0 0 0 3.27,12.54 25.68,25.68 0 0 0 0,25.08 25.68,25.68 0 0 0 0,25.08 25.68,25.68 0 0 0 0,25.08 24.72,24.72 0 0 0 -3.27,12.54 c 0,11.33 7,20.52 15.67,20.52 8.67,0 15.67,-9.19 15.67,-20.52 a 24.72,24.72 0 0 0 -3.27,-12.54 25.68,25.68 0 0 0 0,-25.08 25.68,25.68 0 0 0 0,-25.08 25.68,25.68 0 0 0 0,-25.08 z"
         transform="translate(-57,-44.32)"
         fill="#3f3d56"
         id="path287" />
      <ellipse
         cx="836.76001"
         cy="627.88"
         rx="15.67"
         ry="20.52"
         fill="#3f3d56"
         id="ellipse289" />
      <ellipse
         cx="836.76001"
         cy="602.79999"
         rx="15.67"
         ry="20.52"
         fill="#3f3d56"
         id="ellipse291" />
      <path
         d="m 835.08,475.5 a 74.94,74.94 0 0 1 -5.83,-8.59 l 41.18,-6.77 -44.54,0.33 A 75.22,75.22 0 0 1 824.46,401 l 59.75,31 -55.11,-40.53 a 75.09,75.09 0 1 1 124,84 75.42,75.42 0 0 1 8.56,13.69 l -53.45,27.84 57,-19.13 a 75.16,75.16 0 0 1 -12.1,70.51 75.08,75.08 0 1 1 -118,0 75.12,75.12 0 0 1 0,-92.84 z"
         fill="#38ef7d"
         id="path293"
         transform="translate(-57,-44.32)" />
      <path
         d="m 969.17,521.92 a 74.79,74.79 0 0 1 -16.06,46.42 75.08,75.08 0 1 1 -118,0 C 825,555.56 969.17,513.49 969.17,521.92 Z"
         transform="translate(-57,-44.32)"
         opacity="0.1"
         id="path295" />
      <path
         d="m 332.39,717.11 a 26.17,26.17 0 0 0 3.47,-13.28 c 0,-12 -7.43,-21.73 -16.6,-21.73 -9.17,0 -16.6,9.73 -16.6,21.73 a 26.17,26.17 0 0 0 3.47,13.28 27.15,27.15 0 0 0 0,26.56 27.15,27.15 0 0 0 0,26.56 27.13,27.13 0 0 0 0,26.55 26.23,26.23 0 0 0 -3.47,13.28 c 0,12 7.43,21.73 16.6,21.73 9.17,0 16.6,-9.73 16.6,-21.73 a 26.23,26.23 0 0 0 -3.47,-13.28 27.13,27.13 0 0 0 0,-26.55 27.15,27.15 0 0 0 0,-26.56 27.15,27.15 0 0 0 0,-26.56 z"
         transform="translate(-57,-44.32)"
         fill="#3f3d56"
         id="path297" />
      <ellipse
         cx="262.26001"
         cy="632.96002"
         rx="16.6"
         ry="21.73"
         fill="#3f3d56"
         id="ellipse299" />
      <ellipse
         cx="262.26001"
         cy="606.40002"
         rx="16.6"
         ry="21.73"
         fill="#3f3d56"
         id="ellipse301" />
      <path
         d="m 381.4,469 a 80.85,80.85 0 0 0 6.18,-9.1 l -43.58,-7.18 47.17,0.35 a 79.64,79.64 0 0 0 1.52,-63 L 329.37,422.9 387.73,380 a 79.51,79.51 0 1 0 -131.32,89 79.07,79.07 0 0 0 -9.06,14.5 L 304,512.89 243.63,492.63 a 79.59,79.59 0 0 0 12.82,74.66 79.51,79.51 0 1 0 125,0 79.53,79.53 0 0 0 0,-98.31 z"
         transform="translate(-57,-44.32)"
         fill="#38ef7d"
         id="path303" />
      <path
         d="m 239.4,518.14 a 79.2,79.2 0 0 0 17,49.15 79.51,79.51 0 1 0 125,0 c 10.65,-13.53 -142,-58.08 -142,-49.15 z"
         transform="translate(-57,-44.32)"
         opacity="0.1"
         id="path305" />
      <ellipse
         cx="543"
         cy="784.84003"
         rx="543"
         ry="26.530001"
         fill="#3f3d56"
         id="ellipse307" />
      <path
         d="m 639,728.83 a 1.75,1.75 0 0 0 -1.2,1.06 h -0.19 l -0.74,-0.12 c 0,0 -3.88,-0.32 -4.6,-0.27 a 1.44,1.44 0 0 1 -1.18,-0.67 l -2.89,-2.44 -0.22,-0.19 0.51,-0.18 c 0,0 -7.75,-9.62 -9.42,-9.81 -1.67,-0.19 -4.43,-2.43 -4.46,-2.46 v -0.15 c -0.06,-0.32 -0.1,-0.65 -0.14,-1 l 0.41,0.25 v 0 c 0,-0.11 0,-0.22 0,-0.34 v 0 a 6.24,6.24 0 0 1 1.16,-3.3 c 0.81,-1.12 2,-2 2.48,-3.29 a 4.81,4.81 0 0 0 0.25,-1.73 5.72,5.72 0 0 0 -0.8,-3 3.79,3.79 0 0 0 -2.54,-1.75 c -0.27,0 -0.55,0 -0.82,-0.11 -1.62,-0.38 -2.21,-2.55 -3.78,-3.08 a 3.21,3.21 0 0 0 -2.25,0.23 c -0.71,0.3 -1.34,0.74 -2,1.08 a 13,13 0 0 0 -2.1,1.07 l -0.2,0.17 v 0 l -0.13,0.12 v 0 a 4.34,4.34 0 0 0 -0.67,0.88 v 0.05 c 0,0 0,0.07 -0.05,0.1 v 0.08 0.1 0.09 0.09 0.1 0.09 0.11 a 0.31,0.31 0 0 1 0,0.08 c 0,0 0,0.07 0,0.11 a 0.19,0.19 0 0 0 0,0.08 0.37,0.37 0 0 0 0,0.11 v 0.19 a 0.13,0.13 0 0 1 0,0.06 v 0.17 0 a 3.5,3.5 0 0 0 0.75,1.06 l -0.09,0.09 a 6.82,6.82 0 0 0 -2.1,4.93 7,7 0 0 0 0.11,1.22 6.4,6.4 0 0 0 -1.14,-0.69 10,10 0 0 0 -4.26,-1 29.57,29.57 0 0 1 -5.79,-0.93 2.44,2.44 0 0 1 0.19,0.52 l -0.48,-0.27 a 14.16,14.16 0 0 0 -4.52,-1.52 c 0,0 -1,0.14 -1.13,-2 A 9.05,9.05 0 0 0 584.61,700.88 33.79,33.79 0 0 1 583,695 l -0.32,-3.11 c 0,0 1.51,-8.07 0.6,-11.49 a 2.39,2.39 0 0 0 -0.84,-2.78 c -3.8,-2.8 -7.64,8.11 -7.64,8.11 l -1.43,1.38 a 3.06,3.06 0 0 0 -1.21,-0.46 6.75,6.75 0 0 0 -1.3,2.93 c -0.28,1.14 -2.22,3 -4,4.57 -1.24,1.09 -2.44,2.22 -3.63,3.35 -0.89,0.84 -2.86,2 -7.16,2.72 l -1.85,0.3 a 5.71,5.71 0 0 0 0.22,-1.56 5.84,5.84 0 0 0 -4.59,-5.68 1.48,1.48 0 0 0 0,-0.42 1.73,1.73 0 0 0 -0.44,-0.79 8.36,8.36 0 0 0 -3.23,-2.8 4.21,4.21 0 0 0 -1.75,-0.28 H 544 a 4.47,4.47 0 0 0 -3.27,1.7 c -0.48,0.65 -0.77,1.41 -1.19,2.1 a 9.44,9.44 0 0 1 -3.26,3 c -0.77,0.46 -1.59,0.87 -2.32,1.4 a 8.71,8.71 0 0 0 -3.22,8.69 c 0.3,1.4 0.92,2.78 0.75,4.2 a 7.23,7.23 0 0 1 -1.33,3 9.61,9.61 0 0 0 -1.48,3 2.94,2.94 0 0 0 0.92,3 7.24,7.24 0 0 1 1,0.68 3.32,3.32 0 0 1 0.47,0.74 7.37,7.37 0 0 0 4.57,3.55 3,3 0 0 0 0.94,0.1 h 0.1 a 1.57,1.57 0 0 0 1.7,-0.78 1.65,1.65 0 0 1 0.16,-0.42 0.49,0.49 0 0 1 0.28,-0.19 2.26,2.26 0 0 1 0.67,0.25 8.49,8.49 0 0 0 3.23,0.91 3.62,3.62 0 0 0 0.57,0 2.52,2.52 0 0 0 1.16,-0.16 2.44,2.44 0 0 0 0.89,-0.77 l 0.15,-0.2 a 16.24,16.24 0 0 1 -1.46,4.52 8.26,8.26 0 0 0 -1.09,3.95 3.92,3.92 0 0 0 0.44,2.08 l 0.11,-0.22 a 15.86,15.86 0 0 0 2.17,3 21.13,21.13 0 0 1 -0.21,4.69 9.7,9.7 0 0 0 3.71,10.68 l 1.23,2.7 -5.07,0.36 c -0.51,-0.07 -7.15,-1 -7.18,0.33 -0.03,1.33 1,14.5 4.44,13.61 3.21,-0.83 2.15,-4.67 2,-5.18 h 0.11 -0.12 l 2.56,-2.43 a 1.11,1.11 0 0 0 -0.19,-0.84 v 0 l 6.19,0.28 1.45,3.18 c 0,0 2.47,3.76 0.47,6.92 -2,3.16 -4.08,8.11 -4.41,11.1 a 12.22,12.22 0 0 1 -2.74,5.66 c -1.16,0.4 -5.61,2.14 -3.84,4.79 2,3 8.65,8.8 11.32,8.6 2.67,-0.2 1.6,-2.14 1.6,-2.14 l -2.23,-2.18 a 53.84,53.84 0 0 1 -0.24,-6 1.38,1.38 0 0 0 -1,-1.42 c 0.21,-1.51 0.74,-4.35 1.88,-5.93 1.61,-2.21 6.75,-11.92 6.75,-11.92 0,0 1.63,-1.45 1.27,-5.77 -0.15,-1.74 -0.23,-3.27 -0.28,-4.48 l 5.82,0.26 c 0,0 6.24,-0.62 2,-7.31 -4.24,-6.69 -13.25,-13.25 -13.25,-13.25 l -0.08,-4.14 0.65,0.16 c 0,0 0,-0.15 -0.1,-0.42 h 0.1 A 88.66,88.66 0 0 1 556.62,726 l 0.37,0.17 c 3.87,4.48 6.48,0.69 6.48,0.69 0,0 8.18,-11.49 7.38,-11 a 0.69,0.69 0 0 1 -0.54,0 l 0.59,-1.88 c 0,0 2.42,-3.69 -1.09,-5.77 -2.86,-1.69 -2.79,3.62 -2.66,5.63 l -0.14,-0.13 c 0,0 -2.74,4.12 -4.21,6.43 -1.47,2.31 -2.7,0.79 -2.7,0.79 l -1.86,-2.09 a 7.43,7.43 0 0 0 0.44,-2.62 4.42,4.42 0 0 0 -1.26,-3.39 5.92,5.92 0 0 1 -1.87,-3.93 4.12,4.12 0 0 1 0.37,-1.61 l 9.65,-5.11 c 0,0 2,0 4.77,-4.18 a 72.11,72.11 0 0 1 5.85,-7.71 l -0.16,-0.22 0.16,-0.18 c 0,0 -0.11,-0.16 -0.31,-0.41 l 1.49,-1.72 a 22.75,22.75 0 0 0 0,2.33 l 0.76,2.61 0.44,14.49 c 0,0 -0.47,1.39 2.54,2.77 2.54,1.17 6.57,3.15 7.74,3.72 a 1.78,1.78 0 0 1 -0.07,0.17 h 0.35 v 0 0 c 5.87,-0.53 5.67,5.33 5.67,5.33 0,0 0.4,11.93 -1.4,16.08 a 23.7,23.7 0 0 0 -1.54,9.29 c 0,0 0.18,-0.87 1.19,0.27 l -0.07,0.32 c -0.57,2.88 -1.76,9 -2,11.47 a 40.22,40.22 0 0 1 -1.3,6.69 l -0.6,11 3.76,0.18 v 0.39 a 1.2,1.2 0 0 1 -0.63,1 c -1.29,0.7 -4.32,3.15 -4.08,10.69 L 588,787.8 a 15.37,15.37 0 0 1 -1.83,5.86 3.74,3.74 0 0 0 -0.23,0.44 0.35,0.35 0 0 1 0.1,-0.21 c 0,0 -1.95,0.4 -1.55,5.67 0.4,5.27 1,6.2 1.8,6.26 0.8,0.06 4.71,1 4.51,-0.92 -0.2,-1.92 -0.4,-6.26 -0.13,-6.92 0.27,-0.66 1.32,-2.43 0.31,-2.86 v 0 a 14.92,14.92 0 0 0 0.42,-3.69 24.18,24.18 0 0 1 3.37,-4.25 c 1.4,-1.16 2.16,-3.12 2.67,-5.64 0,-0.16 4.14,-2.9 3.54,-5.17 q -0.15,-0.58 -0.24,-1 c 0,-0.15 0,-0.28 -0.07,-0.4 h 0.08 l 0.83,-5 v 4.88 l 0.5,0.06 v 0.4 l -0.21,4.67 a 7.57,7.57 0 0 1 -0.6,2.65 26,26 0 0 0 -2.07,11.79 l -0.05,4.49 c -0.14,0 -2.18,0.51 -1.79,5.6 0.4,5.27 1,6.19 1.8,6.26 0.8,0.07 4.71,1 4.51,-0.92 -0.2,-1.92 -0.4,-6.26 -0.14,-6.92 0.26,-0.66 0.73,-2.4 -0.28,-2.83 a 3.74,3.74 0 0 1 0.42,-1.69 c 0.44,-0.75 1.91,-4.31 3,-7.05 a 25.35,25.35 0 0 0 1.86,-8.71 v -0.1 a 8.2,8.2 0 0 1 0.64,-2.93 20.73,20.73 0 0 0 1.07,-3.23 c 0,-0.13 0,-0.26 0.07,-0.38 l 0.95,0.12 3.28,-14.16 c 0,0 0.89,-7.68 0.46,-11.15 0,-0.14 0,-0.28 -0.06,-0.4 h 0.2 c 0,0 0.67,-1.71 0.47,-9 -0.2,-7.29 1.33,-9.62 1.33,-9.62 0.83,-2.63 1.75,-3.51 2.28,-3.81 v 0 a 1.09,1.09 0 0 1 0.46,-0.15 l 2.48,2.84 v 0 l 0.46,0.52 c 0,0 0,0 0,0 l 0.21,0.23 a 2.06,2.06 0 0 1 0,-0.35 c 1.32,0.77 4.38,2.56 6.2,3.85 2.38,1.68 3,1.49 5.11,1.31 a 13.78,13.78 0 0 0 4.11,-1.35 h 0.1 a 5,5 0 0 0 1,0.39 c 0,0 3.36,2.84 3.68,-2.35 0.32,-5.19 -4.03,-4.1 -4.03,-4.1 z m -87.1,60.43 a 5.11,5.11 0 0 1 -1,-0.41 z m -5.25,-56.18 v 0.74 0 c -0.02,-0.23 -0.01,-0.49 0,-0.74 z m 52.49,65.78 v 0.29 c -0.06,-0.15 -0.09,-0.15 0,-0.29 z"
         transform="translate(-57,-44.32)"
         fill="url(#b77fcadf-efbd-44d1-9146-365d58ec581c)"
         id="path309"
         style="fill:url(#b77fcadf-efbd-44d1-9146-365d58ec581c)" />
      <rect
         x="547.15997"
         y="668.20001"
         width="5.6999998"
         height="5.9899998"
         fill="#38ef7d"
         id="rect311" />
      <path
         d="m 597.23,781.72 c -0.5,2.5 -1.24,4.45 -2.62,5.6 a 24.17,24.17 0 0 0 -3.31,4.22 c 0,4.1 -1.11,5.34 -1.11,5.34 l -1.11,0.3 h -2.75 a 12.82,12.82 0 0 1 -0.59,-2.2 2.51,2.51 0 0 1 0.43,-1.22 15.43,15.43 0 0 0 1.8,-5.82 l 0.12,-1.21 c -0.23,-7.5 2.74,-9.94 4,-10.63 a 1.22,1.22 0 0 0 0.62,-1 v 0 l 0.22,-2.14 7.4,0.36 a 6,6 0 0 0 0.13,2.16 c 0,0.31 0.13,0.66 0.23,1.05 0.6,2.31 -3.43,5.02 -3.46,5.19 z"
         transform="translate(-57,-44.32)"
         fill="#a0616a"
         id="path313" />
      <path
         d="m 609.78,776.54 a 18.75,18.75 0 0 1 -1,3.2 8.4,8.4 0 0 0 -0.63,2.92 v 0.1 a 25.5,25.5 0 0 1 -1.82,8.66 c -1.09,2.72 -2.53,6.26 -3,7 a 5.76,5.76 0 0 0 -0.29,3.34 l -4.17,-0.29 0.07,-7 a 26.06,26.06 0 0 1 2,-11.72 7.72,7.72 0 0 0 0.58,-2.63 l 0.21,-4.65 0.06,-1.37 c 0,0 7.37,-1.05 8,0.62 a 3.66,3.66 0 0 1 -0.01,1.82 z"
         transform="translate(-57,-44.32)"
         fill="#a0616a"
         id="path315" />
      <path
         d="m 597.23,781.72 c -0.5,2.5 -1.24,4.45 -2.62,5.6 a 24.17,24.17 0 0 0 -3.31,4.22 c 0,4.1 -1.11,5.34 -1.11,5.34 l -1.11,0.3 h -2.75 a 12.82,12.82 0 0 1 -0.59,-2.2 2.51,2.51 0 0 1 0.43,-1.22 15.43,15.43 0 0 0 1.8,-5.82 l 0.12,-1.21 c -0.23,-7.5 2.74,-9.94 4,-10.63 a 1.22,1.22 0 0 0 0.62,-1 v 0 l 0.22,-2.14 7.4,0.36 a 6,6 0 0 0 0.13,2.16 c 0,0.31 0.13,0.66 0.23,1.05 0.6,2.31 -3.43,5.02 -3.46,5.19 z"
         transform="translate(-57,-44.32)"
         fill="#8e5362"
         id="path317" />
      <path
         d="m 609.78,776.54 a 18.75,18.75 0 0 1 -1,3.2 8.4,8.4 0 0 0 -0.63,2.92 v 0.1 a 25.5,25.5 0 0 1 -1.82,8.66 c -1.09,2.72 -2.53,6.26 -3,7 a 5.76,5.76 0 0 0 -0.29,3.34 l -4.17,-0.29 0.07,-7 a 26.06,26.06 0 0 1 2,-11.72 7.72,7.72 0 0 0 0.58,-2.63 l 0.21,-4.65 0.06,-1.37 c 0,0 7.37,-1.05 8,0.62 a 3.66,3.66 0 0 1 -0.01,1.82 z"
         transform="translate(-57,-44.32)"
         fill="#8e5362"
         id="path319" />
      <path
         d="m 600.47,775.53 -7.75,-0.38 0.22,-2.14 7.4,0.36 a 6,6 0 0 0 0.13,2.16 z"
         transform="translate(-57,-44.32)"
         opacity="0.1"
         id="path321" />
      <path
         d="m 609.78,776.54 -8,-1.08 0.06,-1.37 c 0,0 7.37,-1.05 8,0.62 a 3.66,3.66 0 0 1 -0.06,1.83 z"
         transform="translate(-57,-44.32)"
         opacity="0.1"
         id="path323" />
      <path
         d="m 614,762.2 -3.21,14.08 -9.5,-1.28 v -4.84 l -0.82,5 -11.39,-0.56 0.59,-10.91 a 40.25,40.25 0 0 0 1.27,-6.64 c 0.22,-2.47 1.39,-8.55 2,-11.4 0.18,-1 0.3,-1.54 0.3,-1.54 0,0 19.52,4.06 20.8,5.53 a 3.16,3.16 0 0 1 0.45,1.5 c 0.39,3.43 -0.49,11.06 -0.49,11.06 z"
         transform="translate(-57,-44.32)"
         fill="#2f2e41"
         id="path325" />
      <path
         d="m 591.21,763.12 c 0,0 7.68,-4 9.55,-3.18 z"
         transform="translate(-57,-44.32)"
         opacity="0.1"
         id="path327" />
      <path
         d="m 595.4,750 c 0,0 6.38,4.85 6.58,6.16 z"
         transform="translate(-57,-44.32)"
         opacity="0.1"
         id="path329" />
      <path
         d="m 593.66,766.65 c 0,0 4.62,-0.19 6.09,1 z"
         transform="translate(-57,-44.32)"
         opacity="0.1"
         id="path331" />
      <path
         d="m 602,761.47 c 0,0 2.19,7.18 1.24,9.15 -0.95,1.97 -1.93,-0.46 -1.93,-0.46 z"
         transform="translate(-57,-44.32)"
         opacity="0.1"
         id="path333" />
      <path
         d="m 598.9,798.92 c 0,0 -2.17,0.33 -1.77,5.57 0.4,5.24 1,6.15 1.77,6.22 0.77,0.07 4.61,1 4.42,-0.92 -0.19,-1.92 -0.4,-6.22 -0.13,-6.87 0.27,-0.65 0.71,-2.39 -0.28,-2.82 l -0.22,1 c 0,0 -2.09,-1.93 -3.34,-0.52 a 5.22,5.22 0 0 0 -0.25,-1 c -0.1,-0.31 -0.4,-0.47 -0.2,-0.66 z"
         transform="translate(-57,-44.32)"
         fill="#2f2e41"
         id="path335" />
      <path
         d="m 638.45,734.63 c 0,0 -0.49,0.27 -1.22,0.62 a 13.57,13.57 0 0 1 -4,1.34 c -2,0.17 -2.68,0.37 -5,-1.3 -1.79,-1.28 -4.79,-3.07 -6.09,-3.83 l -0.57,-0.34 h -0.06 v 0 l 1.08,-3 3.83,-2 1,0.82 2.83,2.43 a 1.4,1.4 0 0 0 1.15,0.66 c 0.71,-0.05 4.52,0.27 4.52,0.27 l 0.72,0.12 1.52,0.25 z"
         transform="translate(-57,-44.32)"
         fill="#a0616a"
         id="path337" />
      <path
         d="m 638.45,734.63 c 0,0 -0.49,0.27 -1.22,0.62 -0.77,-0.39 -1.72,-1.13 -1.35,-2.34 0.37,-1.21 0.42,-1.95 0.69,-2.56 l 1.52,0.25 z"
         transform="translate(-57,-44.32)"
         opacity="0.1"
         id="path339" />
      <path
         d="m 637.94,729.32 c 0,0 4.27,-1.23 3.95,3.93 -0.32,5.16 -3.61,2.33 -3.61,2.33 0,0 -2.8,-0.73 -2.21,-2.67 0.59,-1.94 0.42,-3.12 1.87,-3.59 z"
         transform="translate(-57,-44.32)"
         fill="#a0616a"
         id="path341" />
      <path
         d="m 593.63,712.62 -4.45,1.87 h -0.07 -0.05 l -0.28,-0.14 c -1.15,-0.57 -5.1,-2.53 -7.59,-3.7 -3,-1.37 -2.49,-2.75 -2.49,-2.75 l -0.43,-14.41 -0.75,-2.58 c 0,0 -0.54,-8.78 3.73,-11 4.27,-2.22 1.51,12.7 1.51,12.7 l 0.31,3.1 a 34.44,34.44 0 0 0 1.17,5.85 8.51,8.51 0 0 1 0.35,1.92 c 0.13,2.1 1.11,2 1.11,2 a 13.67,13.67 0 0 1 4.43,1.5 12.08,12.08 0 0 1 1.47,0.93 z"
         transform="translate(-57,-44.32)"
         fill="#a0616a"
         id="path343" />
      <path
         d="m 609.48,719.5 -3.8,-0.4 a 14.33,14.33 0 0 0 1.61,-3.29 5.48,5.48 0 0 0 0.17,-0.67 2.29,2.29 0 0 0 -0.21,-1.67 c -1.11,-1.64 6.62,-3.93 6.62,-3.93 a 18.92,18.92 0 0 0 -0.09,2.73 15.61,15.61 0 0 0 0.2,1.88 4.72,4.72 0 0 0 1.59,3.09 c 2.43,1.67 -6.09,2.26 -6.09,2.26 z"
         transform="translate(-57,-44.32)"
         fill="#8e5362"
         id="path345" />
      <path
         d="m 609.48,719.5 -3.8,-0.4 a 14.33,14.33 0 0 0 1.61,-3.29 c 0.44,0.63 0.59,0.61 1.21,0.74 0,0 3.83,0.57 5.48,-2.4 a 4.72,4.72 0 0 0 1.59,3.09 c 2.43,1.67 -6.09,2.26 -6.09,2.26 z"
         transform="translate(-57,-44.32)"
         opacity="0.1"
         id="path347" />
      <path
         d="m 622.1,731.46 a 2.11,2.11 0 0 0 0,0.35 l -0.59,-0.69 v 0 l 1.08,-3 3.83,-2 1,0.82 c -1.42,0.44 -5.25,2.06 -5.32,4.52 z"
         transform="translate(-57,-44.32)"
         opacity="0.1"
         id="path349" />
      <path
         d="m 593.63,712.62 -4.45,1.87 h -0.12 -0.34 l 0.06,-0.17 c 0.37,-0.9 2.1,-5.3 1.35,-7.38 a 12.08,12.08 0 0 1 1.47,0.93 z"
         transform="translate(-57,-44.32)"
         opacity="0.1"
         id="path351" />
      <path
         d="m 614.45,751.12 c -1.73,-0.16 -19.07,-1.76 -20.69,-4.31 a 8.49,8.49 0 0 0 -0.86,-1.18 c 0.18,-1 0.3,-1.54 0.3,-1.54 0,0 19.52,4.06 20.8,5.53 a 3.16,3.16 0 0 1 0.45,1.5 z"
         transform="translate(-57,-44.32)"
         opacity="0.1"
         id="path353" />
      <path
         d="m 608.5,716.74 c 0,0 3.87,0.58 5.51,-2.44 0,0 2.74,2.25 4.38,2.45 1.64,0.2 9.23,9.75 9.23,9.75 0,0 -6.09,2 -5.7,5.11 L 619,728.27 c 0,0 -1.44,-0.06 -2.68,3.93 0,0 -1.51,2.29 -1.31,9.56 0.2,7.27 -0.46,9 -0.46,9 0,0 -19.13,-1.64 -20.83,-4.33 -1.7,-2.69 -2,-1.37 -2,-1.37 a 23.89,23.89 0 0 1 1.5,-9.24 c 1.77,-4.12 1.38,-16 1.38,-16 0,0 0.19,-5.83 -5.57,-5.3 0,0 2.42,-5.64 1.31,-7.8 a 28.57,28.57 0 0 0 5.68,0.93 9.78,9.78 0 0 1 4.18,1 4.65,4.65 0 0 1 1.73,1.31 2.55,2.55 0 0 0 3,0.85 30,30 0 0 0 1.71,4.2 l 0.23,0.42 c 0.12,0.19 0.23,0.38 0.35,0.55 a 1.39,1.39 0 0 0 1.28,0.76 z"
         transform="translate(-57,-44.32)"
         fill="#f86d70"
         id="path355" />
      <path
         d="m 613.78,712.27 a 6.75,6.75 0 0 1 -0.69,0.83 6.85,6.85 0 0 1 -4.92,2.07 c -0.24,0 -0.48,0 -0.71,0 a 2.29,2.29 0 0 0 -0.21,-1.67 c -1.11,-1.64 6.62,-3.93 6.62,-3.93 a 18.92,18.92 0 0 0 -0.09,2.7 z"
         transform="translate(-57,-44.32)"
         opacity="0.1"
         id="path357" />
      <path
         d="m 615.05,708.1 a 6.88,6.88 0 1 1 -6.88,-6.88 6.83,6.83 0 0 1 6.88,6.88 z"
         transform="translate(-57,-44.32)"
         fill="#a0616a"
         id="path359" />
      <path
         d="m 618.45,723.82 0.14,4.6 c 0,0 2.06,-1.65 2.12,-3.23 0.06,-1.58 -2.26,-1.37 -2.26,-1.37 z"
         transform="translate(-57,-44.32)"
         opacity="0.1"
         id="path361" />
      <path
         d="m 601.88,728.42 c 0,0 5.41,7.42 8.55,8.17 3.14,0.75 -7.37,-5.76 -8.55,-8.17 z"
         transform="translate(-57,-44.32)"
         opacity="0.1"
         id="path363" />
      <path
         d="m 607.61,729.19 c 0,0 3,3.4 5.18,3.83 z"
         transform="translate(-57,-44.32)"
         opacity="0.1"
         id="path365" />
      <path
         d="m 597,737.77 c 0,0 5.5,5.4 8.65,5.73 z"
         transform="translate(-57,-44.32)"
         opacity="0.1"
         id="path367" />
      <path
         d="m 615.05,708.1 a 6.83,6.83 0 0 1 -2,4.8 l -0.76,-0.46 a 2.15,2.15 0 0 1 -0.73,-0.64 2.55,2.55 0 0 1 -0.16,-1.43 3.35,3.35 0 0 0 -1,-2.78 c -1.31,-1 -3.4,-0.47 -4.71,-1.49 a 5,5 0 0 1 -0.84,-0.93 l -1.24,-1.66 -0.26,-0.32 a 6.88,6.88 0 0 1 11.7,4.91 z"
         transform="translate(-57,-44.32)"
         opacity="0.1"
         id="path369" />
      <path
         d="m 604,699.3 a 12.46,12.46 0 0 1 2.05,-1.07 c 0.68,-0.34 1.3,-0.78 2,-1.08 a 3.07,3.07 0 0 1 2.2,-0.22 c 1.54,0.53 2.12,2.68 3.71,3.06 0.26,0.06 0.54,0.06 0.81,0.11 a 3.73,3.73 0 0 1 2.49,1.73 5.89,5.89 0 0 1 0.79,3 5,5 0 0 1 -0.25,1.72 c -0.47,1.28 -1.64,2.16 -2.44,3.27 a 6.24,6.24 0 0 0 -1.14,3.62 l -1.92,-1.19 a 2.15,2.15 0 0 1 -0.73,-0.64 2.53,2.53 0 0 1 -0.16,-1.42 3.37,3.37 0 0 0 -1,-2.79 c -1.31,-1 -3.4,-0.46 -4.71,-1.49 a 4.4,4.4 0 0 1 -0.84,-0.93 c -0.41,-0.55 -0.83,-1.1 -1.24,-1.66 a 4.73,4.73 0 0 1 -0.9,-1.25 c -0.28,-0.95 0.61,-2.25 1.28,-2.77 z"
         transform="translate(-57,-44.32)"
         fill="#2f2e41"
         id="path371" />
      <path
         d="m 612.55,712 a 2.06,2.06 0 0 1 -0.74,-0.63 2.55,2.55 0 0 1 -0.16,-1.43 3.32,3.32 0 0 0 -1,-2.78 c -1.3,-1 -3.39,-0.47 -4.71,-1.49 a 5,5 0 0 1 -0.84,-0.93 c -0.41,-0.55 -0.82,-1.11 -1.24,-1.66 a 4.62,4.62 0 0 1 -0.9,-1.26 2.86,2.86 0 0 1 0.91,-2.37 3,3 0 0 0 -1.12,2.59 4.73,4.73 0 0 0 0.9,1.25 c 0.41,0.56 0.83,1.11 1.24,1.66 a 4.4,4.4 0 0 0 0.84,0.93 c 1.31,1 3.4,0.45 4.71,1.49 a 3.37,3.37 0 0 1 1,2.79 2.53,2.53 0 0 0 0.16,1.42 2.15,2.15 0 0 0 0.73,0.64 l 1.92,1.19 c 0,-0.11 0,-0.23 0,-0.34 z"
         transform="translate(-57,-44.32)"
         opacity="0.1"
         id="path373" />
      <path
         d="m 586.05,794 c 0,0 -1.92,0.4 -1.53,5.64 0.39,5.24 1,6.16 1.77,6.22 0.77,0.06 4.62,1 4.42,-0.91 -0.2,-1.91 -0.39,-6.22 -0.13,-6.88 0.26,-0.66 1.3,-2.42 0.31,-2.85 l -0.8,1 c 0,0 -2.09,-1.93 -3.34,-0.53 0,0.04 -1.16,-1.24 -0.7,-1.69 z"
         transform="translate(-57,-44.32)"
         fill="#2f2e41"
         id="path375" />
      <path
         d="m 587.26,797.24 c 0.41,0.19 0.8,0.44 1.21,0.64 a 2.76,2.76 0 0 0 1.32,0.31 1,1 0 0 0 0.54,-0.19"
         transform="translate(-57,-44.32)"
         opacity="0.1"
         id="path377" />
      <path
         d="m 599.85,802.38 a 9.37,9.37 0 0 0 0.71,0.7 2.49,2.49 0 0 0 1.38,0.28 0.61,0.61 0 0 0 0.23,0 0.48,0.48 0 0 0 0.21,-0.19 l 0.26,-0.33"
         transform="translate(-57,-44.32)"
         opacity="0.1"
         id="path379" />
      <path
         d="m 567.56,715.24 c 0,0 -0.88,-8.39 2.56,-6.32 3.44,2.07 1.06,5.73 1.06,5.73 l -0.8,2.59 z"
         transform="translate(-57,-44.32)"
         fill="#ffc1c7"
         id="path381" />
      <path
         d="m 573.06,688.45 2,-1.93 c 0,0 3.76,-10.84 7.5,-8.06 3.74,2.78 -4.74,9.83 -4.74,9.83 l -2.24,2.62 z"
         transform="translate(-57,-44.32)"
         fill="#ffc1c7"
         id="path383" />
      <path
         d="m 544.31,731.32 -0.1,2.22 c 0,0 1.8,3.15 2.56,3.38 0.76,0.23 0.68,-6.65 0.68,-6.65 z"
         transform="translate(-57,-44.32)"
         fill="#f86d70"
         id="path385" />
      <path
         d="m 544.11,731.51 -0.1,2.23 c 0,0 1.81,3.14 2.56,3.37 0.75,0.23 0.69,-6.64 0.69,-6.64 z"
         transform="translate(-57,-44.32)"
         opacity="0.1"
         id="path387" />
      <polygon
         points="490.32,684.56 490.45,692.77 499.59,692.77 498.9,687.99 "
         fill="#ffc1c7"
         id="polygon389" />
      <path
         d="m 549.45,749.36 0.43,2.62 5.33,11.86 c 0,0 2.43,3.73 0.46,6.87 -1.97,3.14 -4,8.06 -4.32,11 -0.32,2.94 -2.91,5.9 -2.91,5.9 l 5.63,2.39 c 0,0 0.39,-4.69 2,-6.88 1.61,-2.19 6.62,-11.86 6.62,-11.86 0,0 1.6,-1.44 1.24,-5.73 -0.36,-4.29 -0.32,-7.3 -0.32,-7.3 l -0.56,-6.84 z"
         transform="translate(-57,-44.32)"
         fill="#2f2e41"
         id="path391" />
      <path
         d="m 549.45,749.36 0.43,2.62 5.33,11.86 c 0,0 2.43,3.73 0.46,6.87 -1.97,3.14 -4,8.06 -4.32,11 -0.32,2.94 -2.91,5.9 -2.91,5.9 l 5.63,2.39 c 0,0 0.39,-4.69 2,-6.88 1.61,-2.19 6.62,-11.86 6.62,-11.86 0,0 1.6,-1.44 1.24,-5.73 -0.36,-4.29 -0.32,-7.3 -0.32,-7.3 l -0.56,-6.84 z"
         transform="translate(-57,-44.32)"
         opacity="0.1"
         id="path393" />
      <path
         d="m 548.93,787.29 c 0,0 -6,1.83 -4,4.84 2,3.01 8.48,8.75 11.1,8.55 2.62,-0.2 1.57,-2.13 1.57,-2.13 l -2.19,-2.16 a 53.89,53.89 0 0 1 -0.23,-5.93 c 0.16,-1.34 -1.87,-2 -2.13,-1.18 -0.26,0.82 -4.12,-1.99 -4.12,-1.99 z"
         transform="translate(-57,-44.32)"
         fill="#f86d70"
         id="path395" />
      <path
         d="m 552.73,733.6 -4.78,0.52 a 1.72,1.72 0 0 0 -1.53,1.75 c 0.05,1.91 0.09,5 -0.18,5.5 a 9.71,9.71 0 0 0 3.64,10.63 l 7.1,2.26 -11.39,0.82 0.36,6.32 1.76,-1 21.62,1 c 0,0 6.12,-0.62 2,-7.27 -4.12,-6.65 -13,-13.16 -13,-13.16 l -0.1,-5.18 -0.65,-1.5 z"
         transform="translate(-57,-44.32)"
         fill="#2f2e41"
         id="path397" />
      <path
         d="m 558.65,754.14 a 6.18,6.18 0 0 1 4.92,0 z"
         transform="translate(-57,-44.32)"
         opacity="0.1"
         id="path399" />
      <path
         d="m 546.14,755 c 0,0 -7,-1 -7.07,0.33 -0.07,1.33 1,14.4 4.35,13.52 3.35,-0.88 1.94,-5.21 1.94,-5.21 l 2.52,-2.42 c 0,0 0.26,-1.34 -1.41,-1.21 z"
         transform="translate(-57,-44.32)"
         fill="#f86d70"
         id="path401" />
      <path
         d="m 557.8,718.38 2.79,3.18 c 0,0 1.21,1.5 2.65,-0.79 1.44,-2.29 4.12,-6.38 4.12,-6.38 0,0 3,2.62 3.77,2.09 0.77,-0.53 -7.24,10.91 -7.24,10.91 0,0 -2.55,3.76 -6.35,-0.69 l -1.11,-0.52 z"
         transform="translate(-57,-44.32)"
         fill="#f86d70"
         id="path403" />
      <path
         d="m 557.61,718.38 2.78,3.18 c 0,0 1.21,1.5 2.65,-0.79 1.44,-2.29 4.13,-6.38 4.13,-6.38 0,0 3,2.62 3.76,2.09 0.76,-0.53 -7.23,10.91 -7.23,10.91 0,0 -2.56,3.76 -6.36,-0.69 l -1.11,-0.52 z"
         transform="translate(-57,-44.32)"
         opacity="0.1"
         id="path405" />
      <circle
         cx="492.29001"
         cy="655.35999"
         r="5.8000002"
         fill="#ffc1c7"
         id="circle407" />
      <path
         d="m 549.29,702.79 c 0,0 -5,2.36 -4.39,6.49 a 91.24,91.24 0 0 1 0.69,9.33 c 0,0 2.26,3.34 -0.74,9.73 0,0 -1.92,3.24 -0.64,5.6 0,0 1.42,-3.74 5.08,-1 3.66,2.74 9.56,4 9.56,4 0,0 -3.05,-13.36 -1.18,-15.23 0,0 3.24,-4.81 0.3,-7.85 -2.94,-3.04 -1.48,-5.9 -1.48,-5.9 l 9.47,-5.08 c 0,0 2,0 4.68,-4.15 a 70.8,70.8 0 0 1 5.73,-7.67 c 0,0 -2,-3 -3.93,-3.27 a 6.81,6.81 0 0 0 -1.28,2.91 c -0.28,1.13 -2.17,3 -3.89,4.54 -1.21,1.08 -2.39,2.21 -3.56,3.33 -0.87,0.84 -2.81,2 -7,2.71 -6.96,1.15 -7.42,1.51 -7.42,1.51 z"
         transform="translate(-57,-44.32)"
         opacity="0.1"
         id="path409" />
      <path
         d="m 549.29,702.4 c 0,0 -5,2.36 -4.39,6.48 a 91.54,91.54 0 0 1 0.69,9.34 c 0,0 2.26,3.34 -0.74,9.72 0,0 -1.92,3.25 -0.64,5.6 0,0 1.42,-3.73 5.08,-1 3.66,2.73 9.56,4 9.56,4 0,0 -3.05,-13.36 -1.18,-15.23 0,0 3.24,-4.81 0.3,-7.86 -2.94,-3.05 -1.48,-5.89 -1.48,-5.89 l 9.47,-5.08 c 0,0 2,0 4.68,-4.16 a 71.26,71.26 0 0 1 5.73,-7.66 c 0,0 -2,-3.05 -3.93,-3.28 a 6.91,6.91 0 0 0 -1.28,2.92 c -0.28,1.13 -2.17,3 -3.89,4.54 -1.21,1.08 -2.39,2.2 -3.56,3.33 -0.87,0.83 -2.81,2 -7,2.71 -6.96,1.12 -7.42,1.52 -7.42,1.52 z"
         transform="translate(-57,-44.32)"
         fill="#f86d70"
         id="path411" />
      <path
         d="m 553.58,727.09 c 0,0 3.86,5.7 4,6.68 -0.04,0 -0.58,-6.12 -4,-6.68 z"
         transform="translate(-57,-44.32)"
         opacity="0.1"
         id="path413" />
      <path
         d="m 548.5,707.9 a 4.76,4.76 0 0 0 6.59,0.53 8.38,8.38 0 0 1 -6.59,-0.53 z"
         transform="translate(-57,-44.32)"
         opacity="0.1"
         id="path415" />
      <path
         d="m 550.59,693.61 a 1.79,1.79 0 0 0 -0.42,-0.79 8.4,8.4 0 0 0 -3.17,-2.82 4.38,4.38 0 0 0 -5,1.42 c -0.47,0.64 -0.76,1.41 -1.17,2.09 a 9.23,9.23 0 0 1 -3.19,3 c -0.76,0.47 -1.56,0.87 -2.28,1.4 a 8.71,8.71 0 0 0 -3.15,8.64 c 0.28,1.39 0.89,2.77 0.73,4.18 a 7.47,7.47 0 0 1 -1.3,3 9.35,9.35 0 0 0 -1.46,3 2.94,2.94 0 0 0 0.9,3 5.34,5.34 0 0 1 1,0.68 2.94,2.94 0 0 1 0.47,0.73 7.18,7.18 0 0 0 4.48,3.53 c 0.85,0.22 2,0.14 2.29,-0.68 a 1.46,1.46 0 0 1 0.16,-0.41 c 0.28,-0.4 0.89,-0.17 1.32,0 a 8.08,8.08 0 0 0 3.18,0.91 2.56,2.56 0 0 0 1.29,-0.15 2.38,2.38 0 0 0 0.88,-0.76 9.35,9.35 0 0 0 1.51,-4.79 11.4,11.4 0 0 0 0,-3.3 c -0.33,-1.74 -1.39,-3.37 -1.23,-5.13 0.16,-1.76 1.69,-3.43 1.93,-5.31 a 4.06,4.06 0 0 0 -0.69,-2.79 4.25,4.25 0 0 1 -0.53,-0.82 0.82,0.82 0 0 1 0.16,-0.9 1.3,1.3 0 0 1 0.41,-0.2 3.42,3.42 0 0 0 2,-3 6.16,6.16 0 0 1 0.13,-1.42 c 0.21,-0.71 0.86,-1.52 0.75,-2.31 z"
         transform="translate(-57,-44.32)"
         opacity="0.1"
         id="path417" />
      <path
         d="m 550.2,693.61 a 1.81,1.81 0 0 0 -0.43,-0.79 8.37,8.37 0 0 0 -3.17,-2.82 4.38,4.38 0 0 0 -5,1.42 23.74,23.74 0 0 0 -1.17,2.09 9.23,9.23 0 0 1 -3.19,3 c -0.76,0.47 -1.56,0.87 -2.28,1.4 a 8.74,8.74 0 0 0 -3.16,8.64 c 0.29,1.39 0.9,2.77 0.74,4.18 a 7.35,7.35 0 0 1 -1.31,3 9.33,9.33 0 0 0 -1.45,3 2.94,2.94 0 0 0 0.9,3 5.68,5.68 0 0 1 1,0.68 2.91,2.91 0 0 1 0.46,0.73 7.23,7.23 0 0 0 4.49,3.53 c 0.85,0.22 2,0.14 2.29,-0.68 a 1.46,1.46 0 0 1 0.16,-0.41 c 0.28,-0.4 0.89,-0.17 1.32,0 a 8,8 0 0 0 3.17,0.91 2.6,2.6 0 0 0 1.3,-0.15 2.28,2.28 0 0 0 0.87,-0.76 9.26,9.26 0 0 0 1.51,-4.79 11.06,11.06 0 0 0 0,-3.3 c -0.33,-1.74 -1.39,-3.37 -1.24,-5.13 0.15,-1.76 1.7,-3.43 1.93,-5.31 a 4,4 0 0 0 -0.69,-2.79 4.72,4.72 0 0 1 -0.52,-0.82 0.82,0.82 0 0 1 0.16,-0.9 1.12,1.12 0 0 1 0.41,-0.2 3.41,3.41 0 0 0 2,-3 6.77,6.77 0 0 1 0.14,-1.42 c 0.22,-0.71 0.87,-1.52 0.76,-2.31 z"
         transform="translate(-57,-44.32)"
         fill="#2f2e41"
         id="path419" />
      <g
         opacity="0.1"
         id="g425">
        <path
           d="m 538.49,723.6 a 1.46,1.46 0 0 0 -0.16,0.41 1.33,1.33 0 0 1 -1.2,0.77 c 0.75,0.07 1.54,-0.1 1.79,-0.77 a 1.46,1.46 0 0 1 0.16,-0.41 0.47,0.47 0 0 1 0.2,-0.17 0.67,0.67 0 0 0 -0.79,0.17 z"
           transform="translate(-57,-44.32)"
           id="path421" />
        <path
           d="m 550.21,693.61 a 1.71,1.71 0 0 0 -0.43,-0.79 8.21,8.21 0 0 0 -3.17,-2.78 4,4 0 0 0 -1.81,-0.27 3.66,3.66 0 0 1 1.2,0.23 8.21,8.21 0 0 1 3.17,2.78 1.71,1.71 0 0 1 0.43,0.79 c 0.11,0.79 -0.54,1.6 -0.76,2.33 a 6.16,6.16 0 0 0 -0.13,1.42 3.44,3.44 0 0 1 -2,3 1.12,1.12 0 0 0 -0.41,0.2 0.81,0.81 0 0 0 -0.16,0.9 4.25,4.25 0 0 0 0.53,0.82 4,4 0 0 1 0.69,2.79 c -0.24,1.88 -1.77,3.42 -1.94,5.3 -0.17,1.88 0.91,3.4 1.24,5.14 a 11.06,11.06 0 0 1 0,3.3 9.31,9.31 0 0 1 -1.5,4.79 2.38,2.38 0 0 1 -0.88,0.76 2,2 0 0 1 -0.64,0.16 2.69,2.69 0 0 0 1.23,-0.16 2.38,2.38 0 0 0 0.88,-0.76 9.31,9.31 0 0 0 1.5,-4.79 11.06,11.06 0 0 0 0,-3.3 c -0.33,-1.74 -1.39,-3.37 -1.24,-5.14 0.15,-1.77 1.7,-3.42 1.94,-5.3 a 4,4 0 0 0 -0.69,-2.79 4.25,4.25 0 0 1 -0.53,-0.82 0.81,0.81 0 0 1 0.16,-0.9 1.12,1.12 0 0 1 0.41,-0.2 3.41,3.41 0 0 0 2,-3 6.77,6.77 0 0 1 0.14,-1.42 c 0.23,-0.69 0.88,-1.5 0.77,-2.29 z"
           transform="translate(-57,-44.32)"
           id="path423" />
      </g>
      <path
         d="m 542.77,763 a 2.66,2.66 0 0 0 2.72,0.75"
         transform="translate(-57,-44.32)"
         opacity="0.1"
         id="path427" />
      <path
         d="M 555.36,796.56 A 1.66,1.66 0 0 1 554,796.91"
         transform="translate(-57,-44.32)"
         opacity="0.1"
         id="path429" />
      <path
         d="m 250.3,801.21 13.32,-7.83 a 32.17,32.17 0 0 0 -6.81,-8.15 l -25.12,7.82 19.68,-11.58 A 32,32 0 0 0 204,809.54 c 0,17.67 14.33,18.29 32,18.29 17.67,0 32,-0.62 32,-18.29 a 31.79,31.79 0 0 0 -2.75,-13 z"
         transform="translate(-57,-44.32)"
         fill="#38ef7d"
         id="path431" />
      <path
         d="m 253.69,818.39 a 25,25 0 0 0 -4.72,-3.71 c -2.41,-1.6 -4.92,-3.24 -7.77,-3.79 -2.5,-0.48 -5.08,-0.07 -7.63,-0.22 a 17.83,17.83 0 0 1 -11.69,-5.36 c -1.82,-1.88 -3.25,-4.19 -5.44,-5.62 a 11.91,11.91 0 0 0 -8.14,-1.5 19.82,19.82 0 0 0 -2.41,0.5 32,32 0 0 0 -1.89,10.85 c 0,17.67 14.33,18.29 32,18.29 8.58,0 16.36,-0.15 22.11,-2.32 l -1,-1.79 a 25.13,25.13 0 0 0 -3.42,-5.33 z"
         transform="translate(-57,-44.32)"
         opacity="0.1"
         id="path433" />
      <path
         d="m 1030.3,801.21 13.32,-7.83 a 32.17,32.17 0 0 0 -6.81,-8.15 l -25.12,7.82 19.68,-11.58 A 32,32 0 0 0 984,809.54 c 0,17.67 14.33,18.29 32,18.29 17.67,0 32,-0.62 32,-18.29 a 31.79,31.79 0 0 0 -2.75,-13 z"
         transform="translate(-57,-44.32)"
         fill="#38ef7d"
         id="path435" />
      <path
         d="m 1033.69,818.39 a 25,25 0 0 0 -4.72,-3.71 c -2.41,-1.6 -4.92,-3.24 -7.77,-3.79 -2.5,-0.48 -5.08,-0.07 -7.63,-0.22 a 17.83,17.83 0 0 1 -11.69,-5.36 c -1.82,-1.88 -3.25,-4.19 -5.44,-5.62 a 11.91,11.91 0 0 0 -8.14,-1.5 19.82,19.82 0 0 0 -2.41,0.5 32,32 0 0 0 -1.89,10.85 c 0,17.67 14.33,18.29 32,18.29 8.58,0 16.36,-0.15 22.11,-2.32 l -1,-1.79 a 25.13,25.13 0 0 0 -3.42,-5.33 z"
         transform="translate(-57,-44.32)"
         opacity="0.1"
         id="path437" />
      <path
         d="m 388.83,787.53 -10.41,-6.12 a 25.42,25.42 0 0 1 5.32,-6.36 l 19.63,6.1 -15.38,-9 A 25,25 0 0 1 425,794 c 0,13.81 -11.19,14.29 -25,14.29 -13.81,0 -25,-0.48 -25,-14.29 a 24.87,24.87 0 0 1 2.15,-10.14 z"
         transform="translate(-57,-44.32)"
         fill="#38ef7d"
         id="path439" />
      <path
         d="m 386.18,801 a 19.46,19.46 0 0 1 3.68,-2.89 17.07,17.07 0 0 1 6.07,-3 c 2,-0.38 4,-0.06 6,-0.17 a 14,14 0 0 0 9.13,-4.19 c 1.42,-1.47 2.54,-3.28 4.25,-4.4 a 9.3,9.3 0 0 1 6.36,-1.17 16.94,16.94 0 0 1 1.88,0.39 24.82,24.82 0 0 1 1.45,8.43 c 0,13.81 -11.19,14.29 -25,14.29 -6.7,0 -12.78,-0.12 -17.27,-1.81 l 0.75,-1.4 a 19.23,19.23 0 0 1 2.7,-4.08 z"
         transform="translate(-57,-44.32)"
         opacity="0.1"
         id="path441" />
      <path
         d="m 468.83,787.53 -10.41,-6.12 a 25.42,25.42 0 0 1 5.32,-6.36 l 19.63,6.1 -15.38,-9 A 25,25 0 0 1 505,794 c 0,13.81 -11.19,14.29 -25,14.29 -13.81,0 -25,-0.48 -25,-14.29 a 24.87,24.87 0 0 1 2.15,-10.14 z"
         transform="translate(-57,-44.32)"
         fill="#38ef7d"
         id="path443" />
      <path
         d="m 466.18,801 a 19.46,19.46 0 0 1 3.68,-2.89 17.07,17.07 0 0 1 6.07,-3 c 2,-0.38 4,-0.06 6,-0.17 a 14,14 0 0 0 9.13,-4.19 c 1.42,-1.47 2.54,-3.28 4.25,-4.4 a 9.3,9.3 0 0 1 6.36,-1.17 16.94,16.94 0 0 1 1.88,0.39 24.82,24.82 0 0 1 1.45,8.43 c 0,13.81 -11.19,14.29 -25,14.29 -6.7,0 -12.78,-0.12 -17.27,-1.81 l 0.75,-1.4 a 19.23,19.23 0 0 1 2.7,-4.08 z"
         transform="translate(-57,-44.32)"
         opacity="0.1"
         id="path445" />
      <path
         d="m 759.83,787.53 -10.41,-6.12 a 25.42,25.42 0 0 1 5.32,-6.36 l 19.63,6.1 -15.38,-9 A 25,25 0 0 1 796,794 c 0,13.81 -11.19,14.29 -25,14.29 -13.81,0 -25,-0.48 -25,-14.29 a 24.87,24.87 0 0 1 2.15,-10.14 z"
         transform="translate(-57,-44.32)"
         fill="#38ef7d"
         id="path447" />
      <path
         d="m 757.18,801 a 19.46,19.46 0 0 1 3.68,-2.89 17.07,17.07 0 0 1 6.07,-3 c 2,-0.38 4,-0.06 6,-0.17 a 14,14 0 0 0 9.13,-4.19 c 1.42,-1.47 2.54,-3.28 4.25,-4.4 a 9.3,9.3 0 0 1 6.36,-1.17 16.94,16.94 0 0 1 1.88,0.39 24.82,24.82 0 0 1 1.45,8.43 c 0,13.81 -11.19,14.29 -25,14.29 -6.7,0 -12.78,-0.12 -17.27,-1.81 l 0.75,-1.4 a 19.23,19.23 0 0 1 2.7,-4.08 z"
         transform="translate(-57,-44.32)"
         opacity="0.1"
         id="path449" />
      <path
         d="m 502.84,723.29 a 20.74,20.74 0 0 0 2.74,-10.49 c 0,-9.48 -5.88,-17.17 -13.12,-17.17 -7.24,0 -13.12,7.69 -13.12,17.17 a 20.74,20.74 0 0 0 2.74,10.49 21.47,21.47 0 0 0 0,21 21.45,21.45 0 0 0 0,21 21.47,21.47 0 0 0 0,21 20.71,20.71 0 0 0 -2.74,10.49 c 0,9.48 5.88,17.17 13.12,17.17 7.24,0 13.12,-7.69 13.12,-17.17 a 20.71,20.71 0 0 0 -2.74,-10.49 21.47,21.47 0 0 0 0,-21 21.45,21.45 0 0 0 0,-21 21.47,21.47 0 0 0 0,-21 z"
         transform="translate(-57,-44.32)"
         fill="#3f3d56"
         id="path451" />
      <ellipse
         cx="435.45999"
         cy="647.5"
         rx="13.12"
         ry="17.17"
         fill="#3f3d56"
         id="ellipse453" />
      <ellipse
         cx="435.45999"
         cy="626.52002"
         rx="13.12"
         ry="17.17"
         fill="#3f3d56"
         id="ellipse455" />
      <path
         d="m 541.56,527.23 a 63.07,63.07 0 0 0 4.88,-7.19 l -34.44,-5.66 37.27,0.28 a 62.95,62.95 0 0 0 1.2,-49.78 l -50,25.94 46.11,-33.89 a 62.82,62.82 0 1 0 -103.76,70.3 62.94,62.94 0 0 0 -7.16,11.46 l 44.73,23.24 -47.7,-16 a 62.89,62.89 0 0 0 10.13,59 62.82,62.82 0 1 0 98.76,0 62.84,62.84 0 0 0 0,-77.68 z"
         transform="translate(-57,-44.32)"
         fill="#38ef7d"
         id="path457" />
      <path
         d="m 429.36,566.07 a 62.51,62.51 0 0 0 13.44,38.84 62.82,62.82 0 1 0 98.76,0 C 550,594.23 429.36,559 429.36,566.07 Z"
         transform="translate(-57,-44.32)"
         opacity="0.1"
         id="path459" />
      <path
         d="m 694.36,707.8 a 26.22,26.22 0 0 0 3.46,-13.28 c 0,-12 -7.43,-21.73 -16.6,-21.73 -9.17,0 -16.6,9.73 -16.6,21.73 a 26.23,26.23 0 0 0 3.47,13.28 27.13,27.13 0 0 0 0,26.55 27.15,27.15 0 0 0 0,26.56 27.15,27.15 0 0 0 0,26.56 26.2,26.2 0 0 0 -3.47,13.28 c 0,12 7.44,21.73 16.6,21.73 9.16,0 16.6,-9.73 16.6,-21.73 a 26.19,26.19 0 0 0 -3.46,-13.28 27.22,27.22 0 0 0 0,-26.56 27.22,27.22 0 0 0 0,-26.56 27.2,27.2 0 0 0 0,-26.55 z"
         transform="translate(-57,-44.32)"
         fill="#3f3d56"
         id="path461" />
      <ellipse
         cx="624.21997"
         cy="623.65002"
         rx="16.6"
         ry="21.73"
         fill="#3f3d56"
         id="ellipse463" />
      <ellipse
         cx="624.21997"
         cy="597.09003"
         rx="16.6"
         ry="21.73"
         fill="#3f3d56"
         id="ellipse465" />
      <path
         d="m 619.09,459.66 a 77.42,77.42 0 0 1 -6.18,-9.1 l 43.61,-7.16 -47.17,0.35 a 79.64,79.64 0 0 1 -1.52,-63 l 63.29,32.83 -58.37,-42.9 a 79.51,79.51 0 1 1 131.32,89 79.66,79.66 0 0 1 9.07,14.5 l -56.62,29.42 60.37,-20.26 a 79.51,79.51 0 0 1 -12.82,74.66 79.51,79.51 0 1 1 -125,0 79.51,79.51 0 0 1 0,-98.32 z"
         transform="translate(-57,-44.32)"
         fill="#38ef7d"
         id="path467" />
      <path
         d="m 761.09,508.82 a 79.15,79.15 0 0 1 -17,49.16 79.51,79.51 0 1 1 -125,0 c -10.66,-13.53 142,-58.08 142,-49.16 z"
         transform="translate(-57,-44.32)"
         opacity="0.1"
         id="path469" />
    </g>
  </g>
</svg>
