<svg id="Capa_1" enable-background="new 0 0 512 512" height="512" viewBox="0 0 512 512" width="512" xmlns="http://www.w3.org/2000/svg"><g><path d="m125.03 158.955c0 4.143 3.358 7.5 7.5 7.5s7.5-3.357 7.5-7.5v-12c0-4.143-3.358-7.5-7.5-7.5s-7.5 3.357-7.5 7.5z"/><path d="m257.427 166.455c4.142 0 7.5-3.357 7.5-7.5v-12c0-4.143-3.358-7.5-7.5-7.5s-7.5 3.357-7.5 7.5v12c0 4.143 3.358 7.5 7.5 7.5z"/><path d="m217.097 163.524c2.721-3.122 2.396-7.86-.727-10.581-3.124-2.722-7.86-2.397-10.582.728-5.726 6.569-15.899 6.564-21.62 0-2.722-3.123-7.459-3.449-10.582-.728s-3.448 7.459-.727 10.581c11.704 13.432 32.546 13.419 44.238 0z"/><circle cx="84.091" cy="105.039" r="7.5"/><path d="m281.908 77.984c-2.929 2.929-2.929 7.678 0 10.606 2.929 2.929 7.678 2.929 10.607 0s2.929-7.677 0-10.606c-2.929-2.928-7.678-2.928-10.607 0z"/><circle cx="363.312" cy="212" r="7.5"/><circle cx="114.979" cy="402.661" r="7.5"/><path d="m489.353 398.235c1.687-3.155 2.647-6.754 2.647-10.574v-7.642c11.234-1.248 20-10.797 20-22.358s-8.766-21.11-20-22.358v-32.642c0-15.163-12.337-27.5-27.5-27.5h-130c-15.164 0-27.5 12.337-27.5 27.5v32.703c-10.908 1.358-19.455 10.178-19.975 21.219-.572 12.14 8.413 22.124 19.975 23.433v7.646c0 2.629.458 5.152 1.29 7.5h-55.812v-79.202c0-6.173.917-12.298 2.734-18.227l8.749-28.888c18.221 10.708 41.646 8.002 57.017-6.547 9.665.578 19.326-1.922 27.581-7.096 15.656 10.034 36.861 1.731 41.433-16.522 11.946-2.992 20.82-13.818 20.82-26.68s-8.876-23.689-20.824-26.681c-.021-.084-.048-.168-.07-.252-.167-15.712-7.669-29.688-20.429-38.213-3.985-21.235-22.175-36.574-43.224-37.792 3.819-8.203 3.386-17.913-1.318-25.766 6.25-10.38 5.107-24.34-4.148-33.595-7.732-7.732-18.957-9.867-28.64-6.446-6.998-19.441-26.043-31.938-46.798-30.605-8.577-8.083-19.997-12.65-31.902-12.65-6.418 0-12.806 1.34-18.69 3.899-5.848-2.525-12.205-3.848-18.6-3.848-11.97 0-23.431 4.602-32.013 12.742-6.822-.417-13.54.673-19.887 3.192-3.85 1.529-5.731 5.89-4.202 9.739 1.528 3.85 5.89 5.729 9.739 4.202 5.126-2.035 10.651-2.689 16.109-1.885 2.502.367 5.023-.55 6.702-2.442 9.769-11.009 25.833-13.633 38.612-6.768 2.222 1.194 4.895 1.19 7.114-.008 12.985-7.01 28.943-4.147 38.601 6.66 1.686 1.887 4.211 2.799 6.71 2.419 12.389-1.864 24.257 3.905 30.929 13.793-8.04-.438-15.497 2.542-20.958 8.003-9.094 9.094-10.475 23.024-4.144 33.587-6.332 10.563-4.951 24.494 4.144 33.588 9.235 9.236 23.186 10.411 33.589 4.152 7.716 4.641 17.293 5.238 25.625 1.386 1.662 1.528 3.933 2.249 6.184 1.901 17.663-2.655 34.229 10.087 36.1 27.882.255 2.424 1.672 4.573 3.799 5.763 3.263 1.824 6.089 4.146 8.426 6.846-14.536-2.117-27.408 7.31-30.715 20.515-11.947 2.992-20.82 13.818-20.82 26.68s8.874 23.688 20.821 26.68c.436 1.743 1.046 3.434 1.814 5.055-5.891 3.089-12.624 4.284-19.222 3.316-2.499-.368-5.013.546-6.693 2.431-10.039 11.266-25.869 13.614-38.275 7.831l11.592-6.071c10.984-5.832 15.155-19.439 9.322-30.425-5.816-10.955-19.463-15.137-30.424-9.321l-9.521 5.055-5.055-9.52c-5.818-10.958-19.467-15.144-30.424-9.322-10.958 5.817-15.139 19.466-9.323 30.421l10.19 19.218c-6.856 2.642-14.929 1.109-20.26-4.417-2.946-3.052-7.845-3.057-10.793 0-5.328 5.521-13.389 7.054-20.234 4.417l10.203-19.216c5.817-10.958 1.636-24.606-9.323-30.425-10.957-5.814-24.606-1.634-30.422 9.322l-5.055 9.521-9.521-5.055c-10.958-5.817-24.606-1.636-30.423 9.321-5.831 10.984-1.664 24.592 9.321 30.425l11.554 6.134c-12.31 5.747-28.038 3.484-38.176-7.855-1.683-1.883-4.203-2.792-6.696-2.419-17.654 2.628-34.266-10.175-36.091-28.016-.248-2.424-1.658-4.575-3.78-5.771-9.969-5.61-15.919-15.875-15.919-27.458 0-11.617 5.894-21.901 15.766-27.512 2.119-1.204 3.521-3.362 3.759-5.788.981-10 6.76-18.869 15.387-23.979 2.337 1.414 4.861 2.475 7.498 3.138 2.99 11.949 13.818 20.826 26.681 20.826 12.861 0 23.688-8.874 26.68-20.82 11.947-2.992 20.82-13.818 20.82-26.68 0-12.86-8.873-23.687-20.818-26.68-1.352-5.416-4.327-10.251-8.462-13.905 1.194-.927 2.458-1.774 3.799-2.528 2.133-1.2 3.546-3.365 3.787-5.8.341-3.456 1.244-6.796 2.683-9.927 1.729-3.764.081-8.217-3.683-9.946-3.764-1.731-8.217-.08-9.947 3.683-1.604 3.49-2.759 7.152-3.448 10.927-2.942 1.991-5.609 4.307-7.994 6.915-1.134-.144-2.273-.238-3.416-.238-12.861 0-23.688 8.874-26.68 20.82-11.947 2.992-20.82 13.818-20.82 26.68 0 4.331 1.038 8.568 2.964 12.375-10.155 6.997-17.205 17.728-19.429 29.897-12.673 8.614-20.127 22.756-20.127 38.542 0 15.781 7.525 29.922 20.315 38.532 4.335 23.456 25.792 39.324 48.731 37.964 15.904 15.137 39.406 16.84 56.874 6.578l8.832 28.828c1.809 5.904 2.727 12.028 2.727 18.203v26.729c-6.272-4.72-14.063-7.526-22.5-7.526-18.332 0-33.633 13.223-36.87 30.631-14.968 2.783-26.833 14.49-29.867 29.369h-10.742c-20.678 0-37.5 16.822-37.5 37.5v41.212c0 20.812 16.646 37.914 37.115 38.125l.386.001c10.489 0 20.333-4.418 27.312-11.822 6.978 7.404 16.822 11.822 27.312 11.822s20.334-4.418 27.312-11.823c6.979 7.405 16.823 11.823 27.313 11.823s20.334-4.418 27.312-11.823c6.979 7.405 16.823 11.823 27.313 11.823 10.482 0 20.32-4.411 27.298-11.808 3.739 3.979 8.338 7.12 13.546 9.181 4.404 1.743 9.041 2.627 13.781 2.627 10.49 0 20.334-4.418 27.312-11.823 6.979 7.405 16.823 11.823 27.313 11.823s20.334-4.418 27.312-11.823c6.979 7.405 16.824 11.823 27.313 11.823s20.334-4.418 27.312-11.823c6.979 7.405 16.823 11.823 27.312 11.823s20.334-4.418 27.312-11.823c6.979 7.405 16.822 11.822 27.312 11.822l.394-.001c20.462-.211 37.108-17.313 37.108-38.125v-9.581c0-4.143-3.357-7.5-7.5-7.5s-7.5 3.357-7.5 7.5v9.581c0 12.625-9.986 22.999-22.184 23.125l-.316.001c-8.797 0-16.838-5.181-20.486-13.198-2.661-5.852-10.996-5.842-13.652 0-3.649 8.018-11.69 13.199-20.487 13.199s-16.838-5.181-20.486-13.199c-2.661-5.852-10.996-5.842-13.652 0-3.649 8.018-11.69 13.199-20.487 13.199s-16.838-5.181-20.486-13.199c-2.661-5.852-10.996-5.842-13.652 0-7.978 17.534-32.975 17.579-40.972 0-1.218-2.676-3.887-4.394-6.827-4.394s-5.609 1.718-6.827 4.394c-3.648 8.018-11.69 13.199-20.486 13.199-2.842 0-5.622-.529-8.262-1.574-5.375-2.127-9.83-6.364-12.224-11.625-2.663-5.852-10.995-5.842-13.653 0-3.648 8.018-11.69 13.199-20.486 13.199s-16.838-5.181-20.486-13.199c-2.663-5.852-10.995-5.842-13.653 0-3.648 8.018-11.69 13.199-20.486 13.199s-16.838-5.181-20.486-13.199c-2.663-5.852-10.995-5.842-13.653 0-3.648 8.018-11.69 13.199-20.486 13.199s-16.838-5.181-20.486-13.199c-2.663-5.852-10.995-5.842-13.653 0-3.648 8.018-11.689 13.198-20.485 13.198l-.24-.001c-12.275-.126-22.261-10.5-22.261-23.125v-41.212c0-12.406 10.093-22.5 22.5-22.5h10.742c3.034 14.879 14.899 26.586 29.867 29.369 3.236 17.408 18.538 30.631 36.87 30.631s33.633-13.223 36.87-30.631c14.968-2.783 26.833-14.49 29.867-29.369h292.784c12.406 0 22.5 10.094 22.5 22.5v1.631c0 4.143 3.357 7.5 7.5 7.5s7.5-3.357 7.5-7.5v-1.631c0-15.403-9.337-28.661-22.647-34.426zm-179.16-309.644c5.203 5.203 4.841 13.879-1.019 18.585-4.974 4.007-12.136 3.616-16.659-.907-2.93-2.929-7.677-2.928-10.606 0-4.883 4.884-12.792 4.886-17.678 0-4.874-4.874-4.874-12.804 0-17.678 2.929-2.93 2.929-7.678 0-10.607-4.874-4.873-4.874-12.803 0-17.676v-.001c4.884-4.883 12.792-4.886 17.678.001 2.929 2.928 7.678 2.928 10.606 0 4.874-4.875 12.804-4.875 17.678 0 4.885 4.884 4.885 12.791 0 17.676-2.927 2.926-2.929 7.677 0 10.607zm20.619 123.409c0-6.893 5.607-12.5 12.5-12.5 4.143 0 7.5-3.357 7.5-7.5 0-14.255 20.274-17.353 24.453-3.654.363 1.188.547 2.417.547 3.654 0 4.143 3.357 7.5 7.5 7.5 6.893 0 12.5 5.607 12.5 12.5s-5.607 12.5-12.5 12.5c-4.143 0-7.5 3.357-7.5 7.5 0 11.22-13.761 16.781-21.543 8.604-2.229-2.342-3.457-5.397-3.457-8.604 0-4.143-3.357-7.5-7.5-7.5-6.892 0-12.5-5.607-12.5-12.5zm-266.721-119.461c4.142 0 7.5-3.357 7.5-7.5 0-6.893 5.607-12.5 12.5-12.5 6.844 0 12.5 5.554 12.5 12.5 0 4.143 3.358 7.5 7.5 7.5 6.893 0 12.5 5.607 12.5 12.5s-5.607 12.5-12.5 12.5c-4.142 0-7.5 3.357-7.5 7.5 0 6.893-5.607 12.5-12.5 12.5s-12.5-5.607-12.5-12.5c0-4.143-3.358-7.5-7.5-7.5-6.708 0-12.5-5.472-12.5-12.5 0-6.893 5.607-12.5 12.5-12.5zm130.867 165.332c5.655 3.801 12.269 5.727 18.902 5.727 1.623 0 3.246-.123 4.857-.354l-2.001 6.546c-6.496 21.202-36.936 21.341-43.475 0l-2.009-6.558c8.184 1.172 16.696-.635 23.726-5.361zm-49.979 167.29c-4.142 0-7.5 3.357-7.5 7.5 0 12.406-10.093 22.5-22.5 22.5s-22.5-10.094-22.5-22.5c0-4.143-3.358-7.5-7.5-7.5-12.407 0-22.5-10.094-22.5-22.5s10.093-22.5 22.5-22.5c4.142 0 7.5-3.357 7.5-7.5 0-12.406 10.093-22.5 22.5-22.5s22.5 10.094 22.5 22.5c0 4.143 3.358 7.5 7.5 7.5 12.407 0 22.5 10.094 22.5 22.5s-10.093 22.5-22.5 22.5zm92.5-109.202v79.202h-55.762c-2.991-14.669-14.568-26.246-29.237-29.237v-49.965c0-7.665-1.139-15.269-3.385-22.598l-11.977-39.09c-.583-1.901-1.897-3.494-3.654-4.427l-22.323-11.852c-3.66-1.943-5.052-6.481-3.107-10.143 1.939-3.653 6.488-5.044 10.141-3.107l16.145 8.572c3.658 1.943 8.199.551 10.141-3.106l8.573-16.146c1.938-3.653 6.49-5.046 10.141-3.107 3.653 1.939 5.046 6.489 3.107 10.142l-13.538 25.497c-.933 1.757-1.13 3.812-.547 5.715l6.702 21.874c4.79 15.631 19.351 26.66 36.08 26.615 16.203-.045 31.179-10.623 36.081-26.62l6.685-21.871c.581-1.899.384-3.951-.546-5.706l-13.522-25.503c-1.939-3.653-.546-8.203 3.106-10.142s8.202-.546 10.142 3.107l8.572 16.145c1.942 3.659 6.484 5.047 10.141 3.106l16.143-8.571c3.655-1.938 8.206-.546 10.144 3.107 1.966 3.701.499 8.228-3.07 10.121l-22.429 11.745c-1.783.934-3.116 2.545-3.699 4.471l-11.863 39.173c-2.247 7.332-3.385 14.936-3.385 22.599zm84.521 4.202h37.5c4.143 0 7.5-3.357 7.5-7.5s-3.357-7.5-7.5-7.5h-37.5v-2.5c0-6.893 5.607-12.5 12.5-12.5h130c6.893 0 12.5 5.607 12.5 12.5v2.5h-47.5c-4.143 0-7.5 3.357-7.5 7.5s3.357 7.5 7.5 7.5h47.5v15h-155zm-19.991 37.127c.185-3.93 3.736-7.127 7.915-7.127h179.576c4.136 0 7.5 3.364 7.5 7.5s-3.364 7.5-7.5 7.5h-180c-4.267 0-7.695-3.547-7.491-7.873zm34.991 30.373c0 4.136-3.364 7.5-7.5 7.5s-7.5-3.364-7.5-7.5v-7.5h15zm13.71 7.5c.833-2.348 1.29-4.871 1.29-7.5v-7.5h95v7.5c0 2.629.458 5.152 1.29 7.5zm126.29-7.5c0 4.136-3.364 7.5-7.5 7.5s-7.5-3.364-7.5-7.5v-7.5h15z"/></g></svg>