<svg id="Capa_1" enable-background="new 0 0 512 512" height="512" viewBox="0 0 512 512" width="512" xmlns="http://www.w3.org/2000/svg"><g><path d="m362.217 407.771h-347.217v-303.542h59.676c4.142 0 7.5-3.358 7.5-7.5s-3.358-7.5-7.5-7.5h-60.885c-7.604 0-13.791 6.187-13.791 13.792v305.959c0 7.605 6.187 13.791 13.791 13.791h348.426c4.142 0 7.5-3.358 7.5-7.5 0-4.143-3.358-7.5-7.5-7.5z"/><path d="m498.209 89.229h-393.533c-4.142 0-7.5 3.358-7.5 7.5s3.358 7.5 7.5 7.5h392.324v303.541h-104.783c-4.142 0-7.5 3.358-7.5 7.5s3.358 7.5 7.5 7.5h105.992c7.604 0 13.791-6.186 13.791-13.791v-305.958c0-7.605-6.187-13.792-13.791-13.792z"/><path d="m263.5 352.936v-213.081c0-4.142-3.358-7.5-7.5-7.5s-7.5 3.358-7.5 7.5v213.081c0 4.142 3.358 7.5 7.5 7.5s7.5-3.358 7.5-7.5z"/><path d="m470.107 208.518c4.142 0 7.5-3.358 7.5-7.5v-56.163c0-4.142-3.358-7.5-7.5-7.5h-69.704c-4.142 0-7.5 3.358-7.5 7.5v56.163c0 4.142 3.358 7.5 7.5 7.5zm-62.203-56.163h54.704v41.163h-54.704z"/><path d="m313.427 326.092h141.68c4.142 0 7.5-3.358 7.5-7.5s-3.358-7.5-7.5-7.5h-141.68c-4.142 0-7.5 3.358-7.5 7.5s3.358 7.5 7.5 7.5z"/><path d="m313.427 277.86h70.84c4.142 0 7.5-3.358 7.5-7.5s-3.358-7.5-7.5-7.5h-70.84c-4.142 0-7.5 3.358-7.5 7.5s3.358 7.5 7.5 7.5z"/><path d="m313.427 374.323h141.68c4.142 0 7.5-3.358 7.5-7.5s-3.358-7.5-7.5-7.5h-141.68c-4.142 0-7.5 3.358-7.5 7.5s3.358 7.5 7.5 7.5z"/><path d="m60.553 368.439h141.68c4.142 0 7.5-3.358 7.5-7.5s-3.358-7.5-7.5-7.5h-141.68c-4.142 0-7.5 3.358-7.5 7.5s3.358 7.5 7.5 7.5z"/><path d="m74.413 225.374c0 31.419 25.562 56.981 56.98 56.981 31.419 0 56.98-25.562 56.98-56.981s-25.561-56.98-56.98-56.98-56.98 25.562-56.98 56.98zm56.98-41.98c23.148 0 41.98 18.833 41.98 41.98 0 23.148-18.832 41.981-41.98 41.981s-41.98-18.833-41.98-41.981c0-23.147 18.832-41.98 41.98-41.98z"/><path d="m131.393 255.377c15.401 0 27.932-12.53 27.932-27.932 0-4.142-3.358-7.5-7.5-7.5s-7.5 3.358-7.5 7.5c0 7.131-5.801 12.932-12.932 12.932s-12.932-5.801-12.932-12.932c0-4.142-3.358-7.5-7.5-7.5s-7.5 3.358-7.5 7.5c0 15.402 12.53 27.932 27.932 27.932z"/><path d="m138.893 150.475v-10.62c0-4.142-3.358-7.5-7.5-7.5s-7.5 3.358-7.5 7.5v10.62c0 4.142 3.358 7.5 7.5 7.5s7.5-3.358 7.5-7.5z"/><path d="m186.561 159.6-7.509 7.509c-2.929 2.929-2.929 7.678 0 10.606 1.464 1.464 3.384 2.197 5.303 2.197s3.839-.732 5.303-2.197l7.509-7.509c2.929-2.929 2.929-7.678 0-10.606-2.928-2.929-7.677-2.929-10.606 0z"/><path d="m224.412 225.374c0-4.142-3.358-7.5-7.5-7.5h-10.62c-4.142 0-7.5 3.358-7.5 7.5s3.358 7.5 7.5 7.5h10.62c4.142 0 7.5-3.357 7.5-7.5z"/><path d="m191.864 293.346c1.919 0 3.839-.732 5.303-2.197 2.929-2.929 2.929-7.678 0-10.606l-7.509-7.509c-2.929-2.929-7.678-2.929-10.606 0-2.929 2.929-2.929 7.678 0 10.606l7.509 7.509c1.464 1.464 3.384 2.197 5.303 2.197z"/><path d="m138.893 310.894v-10.62c0-4.142-3.358-7.5-7.5-7.5s-7.5 3.358-7.5 7.5v10.62c0 4.142 3.358 7.5 7.5 7.5s7.5-3.358 7.5-7.5z"/><path d="m70.921 293.346c1.919 0 3.839-.732 5.303-2.196l7.51-7.509c2.929-2.929 2.929-7.678.001-10.607-2.929-2.929-7.678-2.929-10.607 0l-7.51 7.509c-2.929 2.929-2.929 7.678-.001 10.607 1.465 1.464 3.385 2.196 5.304 2.196z"/><path d="m56.493 217.874h-10.62c-4.142 0-7.5 3.358-7.5 7.5s3.358 7.5 7.5 7.5h10.62c4.142 0 7.5-3.358 7.5-7.5s-3.358-7.5-7.5-7.5z"/><path d="m65.618 159.6c-2.929 2.929-2.928 7.678.001 10.607l7.51 7.509c1.465 1.465 3.384 2.197 5.303 2.197s3.839-.732 5.304-2.197c2.929-2.929 2.928-7.678-.001-10.607l-7.51-7.509c-2.93-2.929-7.678-2.929-10.607 0z"/></g></svg>